<?xml version="1.0" standalone="no"?>
<!DOCTYPE svg PUBLIC "-//W3C//DTD SVG 20010904//EN"
 "http://www.w3.org/TR/2001/REC-SVG-20010904/DTD/svg10.dtd">
<svg version="1.0" xmlns="http://www.w3.org/2000/svg"
 width="900.000000pt" height="600.000000pt" viewBox="0 0 900.000000 600.000000"
 preserveAspectRatio="xMidYMid meet">

<g transform="translate(0.000000,600.000000) scale(0.100000,-0.100000)"
fill="#000000" stroke="none">
<path d="M2975 5529 c-307 -41 -564 -206 -721 -464 -206 -338 -256 -472 -203
-546 29 -41 69 -59 145 -66 35 -3 68 -11 72 -17 7 -10 16 -56 41 -201 6 -33
13 -72 16 -87 3 -22 1 -26 -13 -21 -16 6 -16 6 0 -11 10 -9 25 -43 34 -74 9
-31 19 -62 21 -69 2 -6 -5 -14 -16 -18 -18 -6 -20 -12 -15 -48 8 -53 12 -57
31 -32 14 19 15 17 8 -25 -11 -72 -8 -363 5 -456 10 -72 17 -92 43 -120 16
-19 27 -37 24 -40 -9 -9 17 -33 27 -26 5 3 6 -2 3 -12 -4 -11 -3 -15 4 -11 5
4 19 -3 29 -15 11 -13 24 -19 31 -14 9 5 10 2 6 -9 -5 -12 -1 -17 13 -17 11 0
26 -12 34 -27 8 -16 17 -27 21 -25 7 4 54 -30 91 -65 12 -13 29 -23 36 -23 9
0 9 3 -2 10 -8 5 -12 11 -9 14 3 3 21 -5 39 -19 19 -14 44 -25 56 -25 21 0
152 -81 261 -162 30 -22 82 -49 115 -60 52 -18 65 -19 98 -8 21 7 54 29 73 49
40 41 101 156 92 171 -9 15 16 88 32 94 11 5 14 -2 12 -32 -1 -20 1 -55 5 -77
4 -23 3 -52 -3 -67 -5 -14 -13 -73 -17 -131 -6 -103 -6 -106 14 -104 16 1 22
12 31 56 6 30 11 65 11 78 0 13 5 23 10 23 6 0 10 6 10 13 0 7 13 14 30 15
l30 2 0 -62 c0 -163 -66 -655 -125 -936 -9 -46 -10 -72 -3 -85 5 -10 11 -17
13 -15 7 7 47 218 80 423 34 209 64 505 65 645 1 73 14 59 26 -28 4 -33 15
-59 35 -82 30 -34 36 -30 19 16 -9 22 -8 25 3 16 34 -29 42 -118 41 -477 0
-348 -1 -351 -32 -530 -41 -233 -43 -239 -71 -243 -21 -3 -23 0 -18 25 44 239
70 422 83 573 8 102 17 205 19 230 3 33 2 38 -4 20 -4 -14 -13 -77 -20 -140
-14 -128 -31 -238 -60 -380 -10 -52 -22 -117 -26 -143 -3 -27 -12 -50 -18 -52
-7 -2 -57 -1 -111 3 l-99 7 -13 53 c-17 65 -36 103 -84 167 -20 28 -67 102
-105 165 -277 467 -477 766 -661 987 -47 56 -95 125 -108 153 -23 50 -36 55
-36 15 0 -28 44 -95 118 -181 130 -152 405 -557 617 -909 59 -99 127 -205 150
-235 57 -73 75 -111 82 -171 l6 -50 -49 3 -49 3 -8 52 c-6 38 -22 72 -62 130
-68 99 -202 297 -292 433 -210 316 -370 549 -422 613 -33 40 -71 92 -86 117
-23 38 -26 41 -20 15 4 -16 13 -56 20 -87 19 -90 153 -304 435 -698 160 -224
287 -419 393 -605 62 -108 70 -116 52 -50 -6 20 -3 20 162 14 92 -4 169 -7
171 -8 7 -4 0 -61 -8 -61 -5 0 -7 -6 -4 -14 4 -11 -10 -15 -70 -18 -75 -3 -76
-3 -85 24 -7 20 -17 28 -32 28 -18 0 -20 -3 -11 -12 26 -26 13 -35 -48 -32
-66 3 -65 4 -23 -52 13 -17 23 -35 23 -41 0 -6 20 -41 45 -79 29 -43 43 -75
39 -86 -9 -30 10 -21 52 24 21 23 31 39 21 35 -13 -5 -22 4 -38 36 -23 45 -41
97 -33 97 16 0 75 -76 71 -91 -3 -10 1 -20 9 -23 8 -3 14 -11 14 -18 0 -7 8
-22 17 -33 12 -15 14 -16 10 -3 -7 21 45 167 64 179 45 28 41 -28 -11 -140
-17 -34 -27 -67 -24 -73 9 -14 73 125 85 185 6 28 14 66 19 82 23 81 71 376
91 560 13 129 3 509 -17 586 -18 72 -18 72 7 64 12 -4 27 -8 33 -9 6 -1 17 -5
24 -10 11 -6 11 -4 3 10 -6 11 -16 32 -21 48 -8 20 -14 25 -23 18 -7 -6 -21
-6 -34 -1 -25 9 -31 21 -10 18 24 -3 37 1 37 11 0 6 -6 10 -12 9 -28 -5 -94
42 -80 55 3 4 -8 21 -24 38 l-29 32 35 -25 c19 -14 40 -28 45 -32 13 -7 17 30
4 38 -20 13 3 23 34 15 l32 -9 -25 21 -25 20 42 -7 c24 -4 86 -22 139 -41 53
-19 102 -33 108 -31 6 2 -18 19 -53 37 -35 19 -58 36 -52 38 6 2 11 10 11 17
0 17 -90 31 -100 15 -6 -9 -13 -9 -28 -1 -11 6 -49 9 -84 7 -111 -7 -114 -5
-163 97 l-44 89 43 47 c138 151 147 175 152 401 3 116 9 179 21 214 8 27 15
76 15 108 -1 33 3 56 8 53 5 -3 9 14 9 37 -1 24 4 56 10 71 6 16 11 51 11 79
l0 51 -40 -6 -40 -5 0 43 c0 34 4 45 19 50 10 3 26 14 35 24 16 18 16 22 -5
71 -22 50 -22 53 -4 82 17 30 17 30 -3 24 -12 -4 -24 -2 -28 6 -4 6 -2 14 4
16 7 2 19 10 27 19 8 8 15 11 15 7 0 -4 15 7 34 25 55 53 79 120 84 232 5 115
-11 190 -67 304 -98 198 -315 376 -525 430 -76 19 -250 27 -341 14z m341 -145
c3 -28 -14 -74 -28 -74 -4 0 -8 -5 -8 -11 0 -5 5 -7 12 -3 7 4 8 3 4 -5 -4 -6
-12 -9 -17 -6 -5 3 -6 -1 -3 -9 3 -9 11 -13 18 -9 6 3 6 1 -1 -8 -7 -7 -13
-29 -13 -50 0 -34 -35 -97 -47 -85 -3 2 5 15 17 28 19 20 21 31 16 84 -4 52
-2 64 14 79 11 10 19 20 18 24 0 3 0 24 1 45 1 43 12 43 17 0z m-465 -63 c19
-35 62 -67 82 -63 4 1 7 -15 7 -35 0 -34 22 -73 42 -73 4 0 8 9 8 20 0 27 -21
70 -31 64 -5 -3 -9 0 -9 5 0 22 21 10 40 -21 15 -25 19 -43 14 -70 -6 -37 -5
-38 25 -38 24 0 31 -4 31 -19 0 -10 10 -25 23 -34 20 -13 24 -12 40 9 26 35
51 32 44 -5 -5 -26 -3 -29 13 -26 15 3 20 -2 20 -16 0 -11 -4 -17 -10 -14 -5
3 -10 1 -10 -4 0 -6 4 -11 8 -11 9 0 27 -33 36 -66 5 -17 -1 -22 -43 -34 -38
-10 -48 -17 -43 -29 5 -14 4 -14 -13 -1 -17 14 -18 14 -6 -8 10 -18 14 -20 25
-10 8 7 12 17 9 21 -3 5 2 7 11 5 27 -5 23 -22 -8 -36 -32 -16 -48 -6 -60 34
-6 19 -1 23 36 32 23 6 45 9 50 6 4 -3 8 -1 8 5 0 5 -6 12 -12 15 -7 3 -3 3 9
0 17 -4 21 -1 18 13 -2 10 -4 21 -4 24 -1 11 -30 19 -45 13 -11 -4 -13 -12 -5
-31 12 -33 12 -33 -16 -33 -14 0 -25 5 -25 12 0 6 -7 3 -16 -8 -14 -18 -15
-18 -8 6 6 25 6 25 -11 5 -12 -15 -18 -17 -22 -6 -4 11 -7 11 -14 0 -14 -23
-20 -3 -8 25 17 36 2 46 -23 16 -20 -24 -20 -24 -14 -2 6 17 3 22 -9 22 -13 0
-16 6 -13 25 4 21 1 26 -21 31 -49 11 -76 26 -100 56 -40 50 -51 114 -39 226
1 6 6 12 11 12 5 0 7 7 3 15 -10 28 3 15 25 -24z m477 4 c-6 -14 -13 -23 -15
-21 -5 5 15 46 22 46 3 0 -1 -11 -7 -25z m-268 1 c0 -6 5 -5 11 1 15 15 39 5
39 -14 0 -12 -3 -13 -14 -4 -10 9 -16 9 -21 1 -8 -13 0 -24 18 -26 7 0 20 -2
30 -2 10 -1 17 -8 16 -14 -5 -41 1 -50 31 -46 19 3 30 0 30 -8 0 -6 6 -17 14
-23 18 -15 26 6 21 56 l-5 38 11 -32 c9 -25 8 -41 -5 -80 -15 -45 -15 -49 0
-60 19 -14 59 1 49 18 -4 5 1 9 10 9 29 0 27 -28 -4 -59 -33 -33 -34 -33 -81
-35 -27 -1 -30 2 -30 32 0 27 -4 32 -24 32 -13 0 -27 -6 -29 -12 -3 -7 -6 -1
-6 13 -1 18 -8 28 -21 32 -14 4 -20 14 -20 35 0 17 6 33 13 35 6 3 -9 3 -35 0
-27 -3 -48 -2 -48 1 0 4 7 20 15 36 15 29 15 30 -11 36 -23 6 -25 9 -12 18 8
6 13 17 11 23 -3 9 4 12 21 11 14 -1 26 -7 26 -12z m284 -48 c1 -13 -2 -29 -7
-35 -5 -7 -6 -13 -1 -13 5 0 10 -14 11 -30 2 -31 -16 -40 -45 -21 -11 7 -11 9
2 14 8 3 17 1 19 -6 7 -21 16 -2 10 21 -4 17 -11 21 -27 17 -11 -2 -15 -2 -8
1 6 3 10 9 7 14 -2 4 4 15 15 25 11 10 16 24 13 33 -4 10 -3 14 2 10 4 -4 8
-18 9 -30z m-274 -98 c0 -5 -4 -10 -10 -10 -5 0 -10 5 -10 10 0 6 5 10 10 10
6 0 10 -4 10 -10z m-10 -46 c0 -8 -4 -12 -10 -9 -5 3 -10 10 -10 16 0 5 5 9
10 9 6 0 10 -7 10 -16z m-30 -4 c0 -5 -2 -10 -4 -10 -3 0 -8 5 -11 10 -3 6 -1
10 4 10 6 0 11 -4 11 -10z m80 -35 c0 -6 -9 -11 -20 -12 -22 -2 -26 17 -8 35
12 12 28 0 28 -23z m-230 -125 c-7 -4 4 -14 27 -25 36 -17 53 -32 53 -47 0
-11 -59 24 -86 50 -13 12 -18 22 -12 22 5 0 7 7 4 16 -6 14 -4 15 9 4 11 -9
12 -15 5 -20z m423 -32 c-2 -5 -11 -8 -19 -8 -8 0 -14 -4 -14 -10 0 -5 -7 -10
-15 -10 -22 0 -18 17 5 23 11 3 20 12 20 21 0 14 2 15 14 4 8 -7 12 -16 9 -20z
m-252 -42 c50 -11 48 -68 -2 -64 -16 1 -28 7 -26 12 5 14 37 16 37 3 0 -7 4
-6 10 3 12 19 -13 34 -46 26 -14 -4 -24 -2 -24 4 0 5 -7 10 -15 10 -17 0 -17
2 -9 24 5 13 9 13 27 2 12 -8 34 -16 48 -20z m314 -207 c44 -5 100 -10 125
-10 25 0 59 -7 75 -14 17 -7 41 -17 55 -21 39 -11 69 -34 64 -49 -3 -8 -13
-11 -22 -8 -13 4 -14 3 -3 -5 7 -5 11 -15 7 -20 -4 -6 5 -19 19 -28 33 -22 28
-26 -16 -13 -19 5 -59 12 -89 15 -30 3 -75 10 -100 15 -25 5 -121 12 -215 16
-348 12 -779 -44 -927 -122 -44 -23 -62 -23 -38 1 14 14 0 55 -18 52 -8 -2
-16 3 -18 10 -1 7 0 8 3 2 3 -7 19 4 37 23 17 20 49 43 71 52 58 23 257 74
318 81 29 3 106 11 172 19 136 15 381 17 500 4z m172 -205 c-3 -3 -12 -4 -19
-1 -8 3 -5 6 6 6 11 1 17 -2 13 -5z m-1069 -55 c19 -31 74 -49 146 -49 57 0
67 -3 84 -25 13 -16 30 -25 47 -25 23 0 26 2 15 15 -7 8 -21 15 -32 15 -10 0
-16 5 -13 10 11 17 34 11 57 -15 25 -28 82 -36 72 -10 -4 8 -15 15 -25 15 -10
0 -19 4 -19 10 0 12 29 2 51 -17 9 -8 30 -18 45 -22 33 -10 -56 -14 -307 -15
-133 -1 -158 1 -172 16 -21 20 -22 29 -3 22 8 -3 19 4 26 16 9 17 8 26 -4 45
-12 18 -12 25 -3 28 20 9 22 8 35 -14z m1012 5 c0 -2 -12 -4 -27 -4 -21 0 -24
3 -14 9 13 8 41 5 41 -5z m-740 -24 c0 -5 -5 -10 -11 -10 -5 0 -7 5 -4 10 3 6
8 10 11 10 2 0 4 -4 4 -10z m75 0 c-3 -5 -12 -10 -18 -10 -7 0 -6 4 3 10 19
12 23 12 15 0z m425 2 c0 -4 -9 -8 -20 -8 -11 0 -20 4 -20 8 0 4 9 8 20 8 11
0 20 -4 20 -8z m-220 -12 c-8 -5 -23 -10 -32 -10 -21 0 -24 -16 -5 -24 6 -3 4
-5 -6 -3 -26 3 -24 20 4 34 30 16 62 18 39 3z m604 -1 c-2 -5 -21 -11 -42 -14
-61 -11 -74 -16 -68 -30 9 -25 -40 -51 -73 -39 -11 3 -9 8 7 20 23 16 21 34
-4 34 -8 0 -19 -12 -24 -26 l-10 -25 -31 22 c-25 17 -39 20 -76 15 -24 -3 -50
-9 -56 -13 -7 -4 -23 -9 -37 -10 -23 -3 -22 -1 9 19 23 15 53 23 90 25 68 3
285 24 289 27 6 7 30 2 26 -5z m-462 -17 c-12 -2 -20 -8 -17 -13 4 -5 2 -9 -4
-9 -5 0 -12 4 -16 9 -8 14 26 30 44 23 12 -5 11 -8 -7 -10z m-233 -23 c13 -11
21 -22 17 -26 -3 -3 -14 1 -24 10 -10 10 -26 17 -36 17 -9 0 -14 5 -11 10 9
15 27 12 54 -11z m526 -9 c-3 -5 -12 -10 -18 -10 -7 0 -6 4 3 10 19 12 23 12
15 0z m176 -13 c-10 -9 -11 -8 -5 6 3 10 9 15 12 12 3 -3 0 -11 -7 -18z
m-1191 -102 c0 -8 7 -15 15 -15 8 0 15 -4 15 -8 0 -12 49 -34 60 -27 5 3 12
-6 16 -20 3 -13 10 -22 15 -19 5 3 9 -1 9 -8 0 -8 6 -23 14 -33 14 -19 15 -19
33 -2 11 9 25 17 31 17 7 0 12 5 12 10 0 6 8 10 17 10 9 0 25 7 35 16 15 15
23 15 63 4 25 -7 48 -16 50 -20 2 -4 -25 -15 -62 -25 -44 -12 -79 -29 -103
-52 -21 -18 -43 -33 -49 -33 -6 0 -11 -4 -11 -9 0 -10 48 1 72 15 6 4 30 7 52
5 36 -2 38 -1 25 16 -8 11 -3 9 12 -5 14 -12 28 -20 31 -16 4 3 16 0 29 -6
l22 -12 -24 -20 -24 -19 38 6 c49 7 93 30 107 55 6 11 14 19 18 16 4 -3 14 9
21 25 8 19 28 36 56 49 43 20 95 24 95 7 0 -4 5 -5 10 -2 6 3 10 -1 10 -10 0
-9 -5 -13 -11 -9 -16 9 -3 -89 16 -125 7 -15 11 -38 8 -51 -4 -16 -3 -21 5
-16 8 5 10 2 6 -8 -8 -21 14 -83 31 -90 8 -3 22 -3 30 0 16 6 68 -43 62 -59
-5 -16 -39 -17 -54 -1 -8 8 -26 14 -41 14 -22 0 -24 2 -12 11 12 8 11 9 -5 6
-11 -2 -19 -9 -17 -16 2 -9 -3 -11 -13 -8 -8 4 -15 2 -15 -3 0 -18 -42 -21
-84 -5 -47 18 -86 9 -86 -20 0 -9 -9 -15 -22 -15 -19 0 -20 -2 -8 -10 23 -15
45 -12 70 10 29 26 54 25 71 0 12 -18 26 -21 112 -23 53 -1 97 1 97 4 0 4 10
9 22 11 45 6 25 101 -34 165 -17 19 -19 25 -8 38 11 13 10 19 -5 35 -9 10 -14
24 -10 29 3 6 1 11 -5 11 -6 0 -8 5 -5 10 5 8 11 7 21 -1 8 -6 14 -7 14 -2 0
6 10 9 23 8 12 -1 14 0 5 2 -33 8 -19 25 13 18 17 -4 34 -3 38 2 3 6 34 13 68
16 50 4 61 2 56 -9 -6 -17 23 -30 40 -17 11 8 18 9 55 5 6 -1 12 -8 12 -16 0
-8 9 -33 19 -57 14 -32 17 -48 10 -62 -7 -12 -7 -23 1 -32 8 -9 8 -20 2 -32
-6 -10 -8 -38 -6 -63 2 -24 0 -58 -4 -75 -9 -35 -5 -68 9 -60 5 4 9 -3 9 -14
0 -12 6 -21 13 -21 7 0 8 -3 2 -8 -16 -11 -36 -52 -31 -61 3 -4 -1 -8 -8 -8
-9 0 -12 13 -11 39 1 21 -1 38 -5 38 -9 0 -24 -31 -22 -42 1 -5 -3 -8 -8 -8
-6 0 -10 -6 -10 -14 0 -17 -50 -108 -64 -118 -6 -4 -7 -8 -3 -8 5 0 5 -5 2
-10 -4 -6 -18 -2 -36 11 -18 12 -34 18 -39 13 -10 -10 -22 -71 -24 -124 -1
-24 -10 -44 -28 -62 -15 -14 -24 -29 -21 -32 6 -6 -13 -10 -31 -7 -5 1 -6 -4
-3 -11 4 -11 -10 -13 -59 -12 -46 2 -66 -2 -72 -12 -4 -7 -22 -17 -40 -20 -24
-5 -33 -3 -38 10 -7 19 -24 21 -24 3 0 -7 -5 -18 -11 -24 -14 -14 -51 -5 -43
11 3 6 -1 3 -9 -6 -15 -19 -53 -26 -42 -8 9 14 -9 12 -24 -2 -10 -11 -11 -10
-5 5 5 13 2 16 -10 11 -10 -4 -18 0 -22 11 -4 9 -13 14 -20 11 -8 -3 -14 -1
-14 4 0 5 -9 12 -20 15 -11 4 -18 10 -15 15 3 5 0 10 -7 12 -8 3 -9 12 -2 34
12 35 7 75 -7 53 -6 -10 -9 -7 -9 11 0 14 -9 36 -20 50 -16 21 -21 23 -32 11
-7 -8 -8 -11 -1 -7 7 4 9 -1 6 -15 -6 -20 -8 -18 -25 16 -15 28 -24 36 -39 32
-14 -4 -23 1 -31 18 -6 14 -15 22 -19 19 -5 -3 -9 1 -9 9 0 8 -7 20 -15 27
-13 11 -14 10 -9 -6 4 -10 4 -16 -1 -12 -4 4 -14 0 -21 -10 -12 -15 -14 -13
-20 18 -7 33 -8 34 -15 10 -6 -20 -7 -16 -9 20 -1 31 -4 39 -9 26 -6 -16 -9
-14 -22 15 -7 19 -12 41 -10 49 1 8 0 12 -4 8 -10 -10 -55 58 -55 82 0 11 -3
20 -7 20 -5 0 -9 25 -10 55 0 29 -11 98 -23 151 -26 115 -25 247 3 303 14 27
15 36 5 43 -9 5 -8 8 5 8 9 0 17 -7 17 -15z m983 -72 c-7 -2 -19 -2 -25 0 -7
3 -2 5 12 5 14 0 19 -2 13 -5z m93 -30 l28 -38 -33 28 c-18 15 -40 27 -49 28
-14 0 -13 2 3 9 11 5 21 9 21 9 1 1 14 -16 30 -36z m-182 -28 c4 -11 -2 -15
-27 -15 -30 1 -31 1 -13 15 25 19 32 19 40 0z m111 -5 c-3 -5 -12 -10 -18 -10
-7 0 -6 4 3 10 19 12 23 12 15 0z m-203 -32 c-4 -28 -6 -30 -12 -13 -4 11 -3
26 2 33 15 17 15 16 10 -20z m518 5 c0 -16 3 -46 5 -68 8 -57 -10 -14 -19 48
-5 31 -4 47 3 47 6 0 11 -12 11 -27z m-890 8 c0 -10 -30 -24 -37 -17 -3 3 -2
9 2 15 8 13 35 15 35 2z m474 -19 c3 -5 -9 -6 -25 -4 -24 4 -31 0 -36 -17 -4
-17 -8 -19 -19 -10 -28 23 -16 39 30 39 25 0 47 -4 50 -8z m259 -567 c-3 -9
-8 -14 -10 -11 -3 3 -2 9 2 15 9 16 15 13 8 -4z m-163 -105 c0 -5 -2 -10 -4
-10 -3 0 -8 5 -11 10 -3 6 -1 10 4 10 6 0 11 -4 11 -10z m-280 -260 c0 -5 -2
-10 -4 -10 -3 0 -8 5 -11 10 -3 6 -1 10 4 10 6 0 11 -4 11 -10z m650 -440 c0
-5 7 -7 15 -4 8 4 15 1 15 -6 0 -8 -8 -10 -22 -6 -13 3 -27 6 -31 6 -5 0 -5 5
-2 10 8 13 25 13 25 0z m-115 -1250 c-3 -5 -15 -10 -26 -10 -10 0 -19 5 -19
10 0 6 12 10 26 10 14 0 23 -4 19 -10z"/>
<path d="M2905 5209 c2 -31 11 -50 36 -75 18 -19 37 -34 41 -34 16 0 7 22 -18
44 -16 13 -29 37 -33 61 -9 54 -29 58 -26 4z"/>
<path d="M3132 5060 c-17 -27 -15 -43 4 -36 8 3 12 2 9 -4 -3 -6 -15 -10 -26
-10 -22 0 -24 -10 -6 -29 10 -11 8 -11 -10 -2 -14 7 -24 8 -28 1 -3 -5 -3 -11
2 -11 4 -1 13 -2 18 -4 6 -1 16 -3 23 -3 6 -1 12 -6 12 -12 0 -5 -8 -7 -17 -4
-15 5 -15 4 -3 -4 26 -19 38 11 17 45 -4 7 0 13 10 15 12 2 18 14 19 41 3 41
-5 47 -24 17z"/>
<path d="M3020 5012 c0 -5 7 -9 15 -9 8 0 12 4 9 9 -3 4 -9 8 -15 8 -5 0 -9
-4 -9 -8z"/>
<path d="M3106 5174 c-3 -8 -2 -12 4 -9 6 4 14 -4 18 -16 6 -15 11 -19 16 -10
4 6 2 20 -6 29 -12 15 -11 16 5 3 19 -15 33 -9 22 8 -10 17 -52 13 -59 -5z"/>
<path d="M3210 5090 c0 -5 9 -10 21 -10 11 0 17 5 14 10 -3 6 -13 10 -21 10
-8 0 -14 -4 -14 -10z"/>
<path d="M3315 5250 c-3 -6 1 -7 9 -4 18 7 21 14 7 14 -6 0 -13 -4 -16 -10z"/>
<path d="M3582 4590 c0 -14 2 -19 5 -12 2 6 2 18 0 25 -3 6 -5 1 -5 -13z"/>
<path d="M2496 4367 c3 -10 9 -15 12 -12 3 3 0 11 -7 18 -10 9 -11 8 -5 -6z"/>
<path d="M2440 4344 c0 -8 5 -12 10 -9 6 3 10 10 10 16 0 5 -4 9 -10 9 -5 0
-10 -7 -10 -16z"/>
<path d="M2596 4351 c-3 -5 1 -14 9 -21 12 -10 15 -10 15 3 0 19 -16 31 -24
18z"/>
<path d="M2650 4351 c0 -11 29 -35 35 -29 10 9 -7 38 -21 38 -8 0 -14 -4 -14
-9z"/>
<path d="M2817 3700 c-7 -11 -34 -42 -60 -70 -26 -28 -47 -60 -47 -71 0 -24
35 -74 68 -95 23 -15 24 -15 17 8 -5 18 -4 20 5 8 9 -13 12 -13 24 3 18 24 46
21 101 -9 l47 -27 -4 24 c-2 20 1 24 22 21 14 -1 48 -2 77 -2 41 0 52 -3 56
-17 4 -14 5 -13 6 5 1 28 30 29 53 3 12 -14 13 -21 5 -25 -7 -2 4 -4 23 -4 45
0 106 22 102 38 -1 6 2 9 8 5 6 -4 17 -1 25 5 9 8 15 8 15 2 0 -11 25 -10 36
1 11 11 21 8 40 -10 17 -17 17 -17 12 4 -5 17 1 28 19 41 21 15 25 24 19 46
-8 32 -62 67 -91 60 -11 -3 -33 -1 -47 5 -19 7 -28 7 -31 -2 -3 -8 -13 -4 -29
11 -13 12 -27 20 -30 16 -3 -3 -23 -1 -44 5 -24 6 -54 7 -76 2 -22 -5 -38 -5
-38 0 0 5 -12 4 -26 -1 -31 -12 -37 -12 -30 -1 7 11 -13 9 -31 -2 -19 -12 -16
-40 3 -33 8 3 13 2 10 -3 -3 -5 -17 -11 -32 -14 -18 -3 -22 -1 -15 6 6 6 11
15 11 20 0 5 -7 1 -16 -7 -24 -24 -40 -19 -18 6 13 15 6 12 -21 -8 -22 -17
-47 -31 -55 -32 -8 0 -30 -2 -47 -5 -18 -2 -33 0 -33 5 0 6 -7 7 -16 4 -15 -6
-15 -5 -1 16 27 39 57 88 52 88 -2 0 -10 -9 -18 -20z m294 -60 c6 -16 12 -30
12 -30 1 0 34 -12 72 -26 l70 -25 -50 5 c-50 4 -88 -7 -132 -39 -20 -15 -21
-15 -16 3 3 15 -2 21 -21 24 -14 3 -26 1 -26 -3 0 -5 9 -9 21 -9 11 0 17 -4
14 -10 -3 -5 -25 -10 -48 -10 -38 0 -39 1 -21 15 18 13 16 14 -17 8 -28 -4
-37 -1 -43 12 -5 14 -3 15 6 7 15 -11 42 10 30 24 -4 4 1 4 11 1 11 -4 20 -1
23 8 4 8 10 15 15 15 4 0 6 -6 3 -13 -3 -10 5 -12 31 -9 19 2 35 9 35 15 0 6
6 3 13 -8 11 -14 16 -15 22 -5 5 8 2 18 -9 25 -10 8 -14 19 -9 30 4 13 3 16
-5 11 -7 -4 -12 -2 -12 3 0 23 22 10 31 -19z m38 -9 c-1 -13 -2 -13 -6 2 -2 9
-9 17 -14 17 -5 0 -9 5 -9 11 0 8 5 8 15 -1 8 -7 14 -20 14 -29z m-79 25 c0
-3 -4 -8 -10 -11 -5 -3 -10 -1 -10 4 0 6 5 11 10 11 6 0 10 -2 10 -4z m-124
-64 c1 -12 -3 -19 -8 -16 -4 3 -6 10 -3 15 4 5 1 9 -4 9 -6 0 -11 5 -11 11 0
20 25 2 26 -19z m-36 -52 c0 -5 -7 -10 -16 -10 -8 0 -12 5 -9 10 3 6 10 10 16
10 5 0 9 -4 9 -10z m270 -10 c-8 -5 -22 -9 -30 -9 -10 0 -8 3 5 9 27 12 43 12
25 0z"/>
<path d="M2620 3500 c0 -5 5 -10 10 -10 6 0 10 5 10 10 0 6 -4 10 -10 10 -5 0
-10 -4 -10 -10z"/>
<path d="M3215 3400 c-4 -6 -11 -7 -17 -4 -7 4 -8 -2 -3 -17 6 -19 5 -22 -6
-13 -8 5 -30 10 -49 9 -19 -1 -44 3 -55 8 -11 5 -17 6 -13 2 4 -4 -3 -16 -15
-26 -22 -18 -6 -22 20 -6 9 6 11 3 6 -10 -3 -10 -3 -15 2 -11 4 4 14 3 22 -3
7 -6 13 -8 13 -4 0 4 7 2 15 -5 11 -9 15 -9 15 -1 0 7 4 10 9 7 5 -3 11 1 15
9 3 8 12 15 21 15 8 0 15 9 15 20 0 13 5 18 15 14 9 -4 15 0 15 10 0 18 -15
22 -25 6z"/>
<path d="M3023 3375 c0 -8 4 -12 9 -9 4 3 8 9 8 15 0 5 -4 9 -8 9 -5 0 -9 -7
-9 -15z"/>
<path d="M6010 5175 c-196 -39 -417 -189 -525 -355 -192 -295 -206 -574 -39
-756 24 -26 44 -53 44 -60 0 -6 8 -14 19 -17 17 -4 18 -14 13 -146 -4 -116 -2
-144 10 -159 8 -9 15 -34 15 -56 1 -21 6 -43 12 -49 6 -6 11 -22 11 -37 0 -14
4 -31 9 -39 6 -9 9 3 9 35 1 27 6 62 11 77 7 18 7 26 1 22 -6 -3 -10 4 -9 17
0 13 3 17 6 10 2 -6 9 -9 14 -6 6 3 5 12 -2 21 -7 8 -12 30 -11 48 2 18 -2 36
-8 40 -6 3 -7 11 -4 17 4 6 10 5 15 -3 8 -12 10 -12 18 -1 6 11 14 8 34 -12
30 -30 57 -35 51 -8 -5 20 35 68 62 74 11 2 18 9 17 14 -3 14 91 8 150 -10 26
-8 47 -10 47 -5 0 5 -4 9 -10 9 -5 0 -10 4 -10 9 0 5 9 7 20 4 11 -3 20 -1 20
4 0 14 -52 41 -95 48 -22 4 -49 12 -60 18 -19 10 -19 10 0 17 11 4 23 2 27 -4
5 -7 8 -5 8 5 0 19 -8 18 160 24 74 3 143 7 153 9 9 2 17 -1 17 -7 0 -7 4 -6
9 2 5 8 16 11 24 8 9 -3 38 -2 65 2 56 9 104 -1 61 -12 -13 -4 -34 -7 -46 -7
-12 0 -23 -5 -25 -11 -2 -5 -12 -11 -23 -13 -13 -2 -21 -12 -23 -30 -2 -19 0
-26 8 -21 6 4 17 1 25 -5 11 -9 32 -10 82 -3 73 11 146 6 137 -8 -3 -5 2 -9
10 -9 9 0 16 -8 16 -17 1 -14 4 -12 14 6 l14 24 7 -22 c5 -18 9 -20 21 -10 11
9 14 8 14 -5 0 -9 7 -16 15 -16 8 0 15 5 15 10 0 20 31 9 42 -15 6 -14 16 -25
21 -25 5 0 5 -6 -2 -13 -8 -11 -6 -13 12 -13 17 1 21 -4 20 -21 -2 -13 1 -23
6 -23 4 0 7 -11 6 -25 -2 -14 1 -25 6 -25 5 0 9 -5 9 -11 0 -5 -4 -8 -8 -5 -8
5 5 -58 23 -109 4 -12 3 -15 -2 -9 -4 7 -8 -59 -8 -150 0 -128 -4 -172 -18
-216 -10 -30 -16 -63 -13 -72 2 -10 0 -18 -5 -18 -5 0 -9 -9 -9 -20 0 -47 -89
-210 -114 -210 -3 0 -24 -12 -46 -26 -21 -14 -44 -23 -49 -19 -6 3 -11 -1 -11
-10 0 -9 -5 -13 -10 -10 -6 4 -8 11 -5 16 4 5 -1 9 -9 9 -10 0 -13 -6 -9 -17
5 -12 2 -15 -10 -10 -9 3 -19 2 -22 -4 -4 -5 -10 -7 -15 -4 -5 3 -13 -3 -19
-12 -9 -17 -10 -17 -16 0 -4 9 -11 17 -17 17 -5 0 -7 -4 -3 -9 3 -5 1 -12 -5
-16 -6 -4 -7 -12 -3 -18 3 -7 -3 -3 -15 7 -12 11 -22 14 -22 8 0 -18 4 -27 11
-25 4 1 6 -12 5 -29 -1 -17 -7 -33 -13 -35 -7 -3 -9 4 -6 16 3 12 0 28 -7 35
-8 11 -9 20 0 35 7 14 7 21 0 21 -5 0 -10 7 -10 15 0 8 -4 15 -10 15 -13 0
-13 -6 2 -33 10 -20 10 -21 -5 -8 -10 8 -17 9 -17 3 0 -6 4 -13 8 -16 10 -6 9
-102 0 -112 -4 -3 0 -21 8 -40 8 -20 10 -34 4 -34 -5 0 -10 -7 -10 -16 0 -8
-4 -12 -10 -9 -5 3 -15 -3 -21 -14 -7 -10 -19 -17 -26 -14 -9 4 -13 -4 -13
-23 0 -27 -1 -27 -15 -8 -8 10 -15 15 -15 10 0 -5 -6 -3 -14 3 -11 9 -16 9
-22 0 -4 -7 -3 -9 3 -6 6 4 13 0 17 -8 6 -17 -7 -27 -41 -31 -27 -3 -30 10 -5
26 11 8 12 10 2 7 -22 -6 -62 11 -55 23 4 6 1 9 -6 8 -7 -2 -18 7 -24 19 -7
13 -14 20 -17 18 -3 -3 -8 1 -12 10 -4 11 -2 14 6 9 8 -5 9 -2 5 10 -4 9 -3
15 2 11 5 -3 12 1 14 7 4 10 6 10 6 0 1 -7 6 -10 11 -7 6 3 10 1 10 -4 0 -6 6
-10 13 -9 8 2 11 -8 11 -30 -1 -17 2 -32 7 -32 5 0 8 3 8 8 -5 31 2 44 23 39
12 -4 28 -1 35 5 10 8 13 6 13 -6 0 -9 5 -16 10 -16 6 0 8 11 6 25 -3 14 1 37
9 52 l14 26 21 -36 c25 -42 40 -48 39 -14 0 21 -1 21 -8 2 -8 -19 -8 -19 -15
2 -4 12 -18 31 -32 42 -14 11 -20 22 -14 26 7 4 7 13 -1 26 -6 12 -8 23 -5 27
3 3 6 -1 7 -9 0 -8 4 -6 9 6 7 15 9 16 9 4 1 -9 9 -23 18 -30 11 -10 14 -10 9
-1 -4 6 -2 12 3 12 18 0 12 39 -9 60 -11 11 -20 17 -20 13 0 -14 -47 -63 -54
-56 -3 3 -6 1 -6 -5 0 -5 -3 -17 -6 -26 -3 -9 -1 -16 5 -16 6 0 11 8 11 18 0
14 2 15 10 2 5 -9 5 -19 -2 -27 -6 -7 -6 -13 -1 -13 5 0 9 -9 9 -20 0 -10 -2
-17 -5 -15 -2 3 -9 -5 -15 -17 -6 -12 -17 -24 -25 -26 -10 -3 -7 6 7 26 25 34
28 47 10 35 -20 -12 -38 -12 -38 -1 0 6 -6 5 -15 -2 -9 -8 -15 -8 -15 -2 0 6
-3 19 -6 29 -4 11 -3 14 3 6 8 -11 27 -17 49 -14 7 1 9 25 7 70 -3 42 0 72 6
76 6 3 11 11 11 16 0 6 -7 4 -15 -5 -8 -8 -15 -19 -15 -24 0 -5 -11 -14 -25
-20 -31 -14 -32 -9 -2 19 12 12 15 18 7 13 -12 -6 -11 -3 2 18 l18 27 -33 -11
c-36 -12 -49 -27 -39 -43 3 -5 -3 -3 -13 5 -10 8 -16 10 -12 4 4 -7 0 -17 -8
-24 -13 -11 -14 -10 -9 4 7 19 -7 21 -25 4 -10 -11 -18 -6 -42 22 -16 19 -34
35 -40 35 -5 0 -14 7 -19 15 -5 8 -10 10 -10 4 0 -6 6 -16 13 -22 11 -10 17
-12 35 -12 4 0 -1 -5 -11 -11 -14 -9 -25 -2 -61 37 -32 36 -45 44 -51 34 -5
-8 -4 -11 2 -7 11 7 32 -15 72 -72 13 -19 18 -30 11 -26 -10 6 -12 -5 -8 -52
6 -64 17 -86 85 -170 23 -29 53 -72 68 -97 23 -39 32 -46 73 -55 58 -12 77 -3
156 78 47 47 63 58 73 49 10 -8 12 -7 7 5 -4 12 0 15 15 14 11 -1 23 -7 26
-14 5 -15 50 -8 74 11 12 9 12 8 2 -11 -24 -46 -3 -21 51 60 31 45 63 98 73
117 10 19 38 64 64 99 25 36 62 97 83 135 33 62 38 67 38 41 0 -17 -28 -87
-65 -164 -37 -73 -64 -136 -61 -139 7 -6 126 241 126 260 0 8 3 9 11 1 14 -14
-47 -177 -111 -298 -123 -233 -463 -791 -616 -1013 -55 -79 -108 -158 -119
-175 -19 -30 -20 -31 -23 -9 -2 12 -7 22 -11 22 -5 0 -7 -12 -4 -27 l3 -28
-11 25 c-6 14 -12 33 -14 43 -2 9 -7 22 -11 28 -3 6 -8 79 -10 163 -3 83 -13
205 -24 271 -40 242 -60 403 -72 552 -9 132 -9 160 6 217 25 99 19 108 -18 29
-19 -39 -51 -90 -72 -112 l-37 -42 7 -269 c6 -241 28 -574 56 -825 5 -49 21
-130 35 -180 13 -49 32 -119 41 -155 18 -70 29 -90 49 -90 14 0 -5 81 -60 265
-19 66 -30 136 -40 260 -8 94 -21 231 -30 305 -8 74 -19 250 -24 390 -8 233
-7 258 9 295 10 22 25 49 34 60 13 16 13 11 -3 -20 -17 -37 -19 -59 -16 -240
3 -205 14 -345 40 -520 8 -55 19 -167 23 -250 7 -140 11 -161 57 -313 49 -161
50 -162 53 -110 3 52 -5 87 -53 238 -18 59 -24 98 -24 180 -1 110 -3 139 -26
285 -37 230 -63 662 -44 711 9 22 7 34 19 -156 9 -157 28 -328 60 -538 11 -73
21 -185 21 -250 0 -97 5 -132 27 -204 27 -88 37 -103 45 -70 3 9 5 -5 6 -32
l1 -50 39 81 c22 44 44 84 49 87 27 16 354 529 514 806 31 52 83 142 118 200
88 148 135 243 168 343 18 53 32 81 36 72 8 -21 -30 -166 -64 -240 -78 -175
-644 -1104 -731 -1200 -10 -11 -30 -43 -45 -70 -78 -147 -94 -184 -94 -221 0
-36 5 -30 78 103 42 79 127 216 188 305 122 179 214 327 397 638 230 392 264
456 283 538 17 78 34 114 34 75 0 -35 -31 -186 -45 -220 -17 -40 -342 -598
-462 -793 -49 -80 -136 -212 -193 -295 -56 -82 -139 -216 -183 -298 -44 -81
-89 -156 -99 -167 -23 -24 -23 -30 2 -30 13 0 18 5 14 15 -4 10 0 15 13 15 19
0 38 30 138 214 21 38 93 151 160 250 144 213 455 728 608 1006 36 66 76 201
78 262 1 31 1 31 9 8 7 -21 8 -19 9 17 1 35 -5 49 -40 89 -22 26 -52 72 -65
103 l-25 56 20 63 c12 34 21 74 21 87 0 14 4 25 9 25 5 0 12 16 15 35 4 19 11
35 16 35 16 0 11 37 -6 54 -14 15 -16 63 -4 156 0 3 4 -1 9 -9 5 -8 5 -26 -1
-44 -21 -57 28 -55 82 5 22 24 26 35 21 60 -4 17 -15 36 -26 42 -11 6 -26 19
-34 30 -14 18 -14 18 -30 -2 -15 -21 -16 -20 -17 28 -1 36 3 50 13 50 11 0 11
4 3 20 -11 21 -5 44 9 36 4 -3 21 8 36 24 30 32 47 38 44 18 -3 -28 2 -48 12
-48 8 0 10 12 6 35 -4 24 -2 33 5 29 6 -4 9 -1 6 7 -2 7 -15 16 -28 19 -20 5
-26 16 -37 76 -14 68 -14 71 11 114 14 26 46 59 77 80 71 48 93 93 97 195 7
145 -43 277 -169 450 -146 202 -266 313 -417 387 -139 68 -356 94 -512 63z
m326 -111 c3 -20 1 -25 -5 -15 -7 11 -11 8 -17 -10 -4 -13 -7 -29 -6 -36 2 -6
-2 -14 -7 -18 -6 -3 -8 -12 -4 -20 4 -12 10 -9 25 11 16 20 23 23 30 12 11
-17 7 -96 -6 -128 -21 -49 -103 -109 -129 -94 -8 5 -8 2 1 -7 6 -7 12 -21 12
-32 0 -12 -4 -16 -12 -11 -9 5 -8 2 1 -9 16 -21 7 -35 -12 -19 -7 6 -22 10
-34 9 -18 -1 -19 -4 -10 -24 5 -12 14 -20 18 -17 5 3 9 0 9 -5 0 -6 9 -2 19 8
12 12 27 17 41 14 14 -4 26 1 35 13 9 12 14 14 15 6 0 -7 6 -10 13 -7 6 4 -1
-5 -18 -19 -16 -14 -35 -26 -40 -26 -6 0 -21 -7 -33 -16 -17 -11 -20 -19 -13
-28 16 -19 -84 -41 -143 -32 -38 6 -45 10 -36 21 9 10 1 16 -38 29 -53 18
-136 73 -94 63 23 -5 31 8 10 16 -10 4 -10 6 0 6 8 1 16 -8 19 -19 6 -23 14
-25 32 -7 10 8 12 8 7 0 -8 -15 8 -25 28 -17 17 7 22 39 7 48 -5 3 -7 14 -5
24 4 13 -2 17 -28 19 -72 5 -121 72 -120 166 0 87 2 98 14 91 7 -4 8 5 4 27
l-7 34 14 -30 c18 -39 77 -85 109 -85 6 0 20 -8 31 -17 15 -13 21 -15 24 -5 3
6 8 10 11 8 4 -2 8 7 8 20 2 22 -7 29 -30 25 -5 -1 -6 5 -2 14 3 9 6 20 6 25
0 10 91 31 102 24 10 -6 -1 -34 -14 -34 -5 0 -6 6 -2 13 5 7 1 6 -10 -3 -17
-13 -16 -15 15 -30 19 -8 36 -24 37 -35 5 -29 7 -29 44 -3 18 12 42 28 53 34
29 16 74 85 67 104 -3 8 -2 12 2 9 4 -4 9 -19 12 -35z m14 -48 c0 -2 -12 -13
-27 -27 -15 -13 -22 -17 -15 -8 7 9 12 21 11 25 -3 18 1 23 16 18 8 -4 15 -7
15 -8z m-81 -322 c-14 -17 -25 -18 -32 -1 -3 7 5 13 20 13 19 2 22 -1 12 -12z
m179 -259 c173 -24 442 -113 442 -145 0 -6 -18 -2 -42 10 -26 13 -35 15 -24 5
11 -8 23 -15 28 -15 4 0 8 -7 8 -16 0 -8 5 -12 10 -9 6 3 10 0 10 -7 0 -8 3
-9 8 -3 4 6 16 11 27 13 17 2 17 1 5 -8 -13 -9 -13 -11 0 -20 8 -5 21 -10 28
-10 6 0 12 -5 12 -11 0 -5 -4 -8 -9 -5 -5 3 -12 -6 -16 -21 -4 -16 -9 -22 -14
-15 -17 28 -238 105 -335 117 -22 3 -77 13 -121 22 -113 24 -432 24 -570 0
-161 -28 -302 -85 -363 -146 -26 -26 -36 -31 -42 -20 -5 7 -7 16 -6 19 2 3 6
13 10 24 5 14 9 16 20 7 10 -9 17 -7 27 6 9 11 10 14 2 9 -7 -4 -13 -3 -13 3
0 9 32 42 75 77 16 13 14 13 -10 -1 -16 -10 -43 -29 -59 -44 l-29 -26 18 27
c20 32 121 98 209 137 36 16 104 35 166 44 58 9 116 19 130 21 48 9 306 -3
418 -19z m107 -225 c16 -18 16 -20 2 -20 -10 0 -17 7 -17 16 0 8 -4 12 -10 9
-5 -3 -10 -1 -10 4 0 17 15 13 35 -9z m92 14 c-3 -3 -12 -4 -19 -1 -8 3 -5 6
6 6 11 1 17 -2 13 -5z m58 -4 c3 -5 -1 -10 -10 -10 -9 0 -13 5 -10 10 3 6 8
10 10 10 2 0 7 -4 10 -10z m63 -23 c6 -44 16 -77 24 -77 5 0 6 -4 3 -10 -12
-19 -23 -10 -31 23 -4 17 -8 37 -8 42 -1 6 -5 11 -11 12 -13 3 -6 -60 7 -68 7
-4 3 -11 -8 -17 -14 -7 -23 -6 -34 6 -13 14 -12 15 2 9 14 -5 17 0 15 23 -1
21 -6 28 -17 25 -8 -2 -27 -7 -43 -11 -22 -5 -25 -9 -16 -20 9 -12 15 -12 27
-2 14 12 14 10 1 -9 -8 -13 -16 -23 -19 -23 -3 -1 -32 -2 -64 -5 -39 -2 -55 0
-45 6 7 5 11 9 7 9 -3 0 -14 3 -24 7 -13 5 -15 3 -9 -8 6 -11 5 -12 -6 -1 -15
14 -5 27 26 35 13 3 9 5 -12 6 -23 1 -33 -4 -33 -14 0 -20 -32 -35 -74 -35
-41 0 -46 11 -13 33 12 9 16 16 9 16 -7 1 -20 -8 -29 -19 -12 -13 -25 -18 -42
-14 -21 5 -23 3 -11 -6 12 -9 10 -10 -10 -4 -32 8 -30 6 -24 31 6 20 12 21
151 22 160 0 242 12 268 41 18 19 41 18 43 -3z m-550 -6 c8 -4 13 -12 12 -17
0 -5 14 -11 31 -14 41 -6 48 -27 12 -33 -36 -7 -122 -7 -106 -1 7 3 9 12 6 20
-4 11 0 15 12 12 10 -2 20 3 23 11 3 8 0 11 -7 7 -14 -9 -33 2 -26 15 8 11 26
11 43 0z m192 -12 c0 -5 -7 -9 -15 -9 -15 0 -20 12 -9 23 8 8 24 -1 24 -14z
m-259 -16 c-11 -5 -11 -7 0 -14 9 -6 1 -9 -23 -9 -36 0 -47 8 -31 23 3 4 20 7
37 6 17 0 25 -3 17 -6z m-543 -45 c21 -6 57 -4 128 6 47 7 52 6 57 -13 3 -13
13 -21 27 -21 13 0 20 5 17 13 -2 6 -12 11 -21 11 -9 -1 -16 2 -16 7 0 5 6 9
13 9 6 0 39 4 73 9 34 5 76 5 95 1 32 -7 30 -8 -21 -10 -51 -2 -52 -3 -20 -10
31 -7 33 -8 15 -11 -2 0 -19 -4 -36 -9 -28 -8 -216 -37 -294 -45 -16 -2 -42
-6 -58 -10 -22 -6 -26 -4 -21 9 3 9 10 16 15 16 5 0 9 17 9 38 0 42 13 66 18
34 2 -11 11 -22 20 -24z m472 28 c0 -2 -13 -6 -29 -8 -17 -2 -28 -1 -25 4 5 8
54 12 54 4z m730 0 c0 -3 -4 -8 -10 -11 -5 -3 -10 -1 -10 4 0 6 5 11 10 11 6
0 10 -2 10 -4z m-1010 -210 c0 -2 -7 -7 -16 -10 -8 -3 -12 -2 -9 4 6 10 25 14
25 6z m-160 -76 c0 -5 -2 -10 -4 -10 -3 0 -8 5 -11 10 -3 6 -1 10 4 10 6 0 11
-4 11 -10z m1075 -890 c-10 -11 -22 -20 -28 -20 -5 0 1 9 14 20 31 25 37 25
14 0z m142 -112 c-3 -8 -6 -5 -6 6 -1 11 2 17 5 13 3 -3 4 -12 1 -19z m-622
-139 c-5 -6 -12 -4 -20 8 -17 23 -8 38 11 18 9 -8 12 -20 9 -26z m-295 -44 c0
-12 -19 -12 -23 0 -4 9 -1 12 9 8 7 -3 14 -7 14 -8z m22 -50 c3 -13 1 -22 -3
-19 -9 5 -13 44 -5 44 2 0 6 -11 8 -25z m438 11 c0 -3 -4 -8 -10 -11 -5 -3
-10 -1 -10 4 0 6 5 11 10 11 6 0 10 -2 10 -4z m-413 -48 c-3 -7 -5 -2 -5 12 0
14 2 19 5 13 2 -7 2 -19 0 -25z"/>
<path d="M5990 4917 c0 -5 5 -18 11 -29 9 -17 13 -18 20 -7 7 11 9 11 9 1 0
-9 7 -11 19 -7 11 3 22 1 26 -5 11 -18 26 -11 23 13 -3 20 -8 22 -47 19 -29
-3 -46 1 -52 10 -5 7 -9 9 -9 5z"/>
<path d="M6130 4889 c-11 -8 -12 -12 -2 -16 6 -2 12 -9 12 -15 0 -7 -17 -9
-46 -5 -29 3 -41 1 -33 -4 12 -7 12 -9 0 -9 -8 0 -11 -3 -7 -7 4 -4 21 -6 39
-5 27 2 33 -1 33 -18 0 -21 -24 -24 -39 -5 -5 6 -7 4 -5 -4 2 -8 12 -19 22
-25 14 -9 21 -7 33 12 9 12 21 22 29 22 7 0 14 -10 16 -22 3 -21 4 -21 9 5 6
24 4 27 -22 27 -34 0 -37 16 -8 41 33 28 5 54 -31 28z"/>
<path d="M6323 4883 c-15 -5 -17 -23 -4 -23 5 0 11 7 15 15 3 8 4 15 3 14 -1
0 -8 -3 -14 -6z"/>
<path d="M5983 4833 c17 -20 57 -21 57 -2 0 13 -18 20 -22 8 -3 -9 -10 -8 -28
1 -25 13 -25 13 -7 -7z"/>
<path d="M6142 4770 c-10 -17 -10 -20 3 -20 8 0 15 2 15 4 0 2 3 11 6 20 9 23
-9 20 -24 -4z"/>
<path d="M6026 4678 c-19 -27 -11 -41 17 -32 29 9 30 9 22 33 -8 27 -20 27
-39 -1z"/>
<path d="M6080 4586 c0 -9 30 -14 35 -6 4 6 -3 10 -14 10 -12 0 -21 -2 -21 -4z"/>
<path d="M6814 4261 c6 -10 66 -33 66 -26 0 5 -56 35 -65 35 -3 0 -4 -4 -1 -9z"/>
<path d="M6338 4143 c7 -3 16 -2 19 1 4 3 -2 6 -13 5 -11 0 -14 -3 -6 -6z"/>
<path d="M6575 4137 c-13 -10 -15 -16 -6 -21 7 -5 18 -1 24 7 7 8 19 17 27 20
10 4 9 6 -6 6 -11 1 -28 -5 -39 -12z"/>
<path d="M5855 4110 c3 -5 15 -10 26 -10 10 0 19 5 19 10 0 6 -12 10 -26 10
-14 0 -23 -4 -19 -10z"/>
<path d="M5745 4100 c3 -5 10 -10 16 -10 5 0 9 5 9 10 0 6 -7 10 -16 10 -8 0
-12 -4 -9 -10z"/>
<path d="M5580 4090 c0 -5 5 -10 11 -10 5 0 7 5 4 10 -3 6 -8 10 -11 10 -2 0
-4 -4 -4 -10z"/>
<path d="M5646 4083 c-6 -14 -5 -15 5 -6 7 7 10 15 7 18 -3 3 -9 -2 -12 -12z"/>
<path d="M5695 4090 c-3 -5 -1 -10 4 -10 6 0 11 5 11 10 0 6 -2 10 -4 10 -3 0
-8 -4 -11 -10z"/>
<path d="M2230 4121 c0 -5 7 -12 16 -15 14 -5 15 -4 4 9 -14 17 -20 19 -20 6z"/>
<path d="M2221 4015 c0 -5 11 -30 24 -55 21 -38 24 -41 24 -20 1 14 -10 39
-24 55 -13 17 -24 26 -24 20z"/>
<path d="M5785 3790 c3 -5 8 -10 11 -10 2 0 4 5 4 10 0 6 -5 10 -11 10 -5 0
-7 -4 -4 -10z"/>
<path d="M6302 3784 c-13 -9 -21 -22 -18 -29 2 -7 0 -17 -5 -22 -6 -6 5 -10
30 -11 22 -1 43 3 47 10 5 7 -2 9 -22 5 l-29 -5 29 25 29 25 11 -24 c6 -12 17
-24 25 -26 22 -4 50 8 47 21 -1 7 -1 9 1 5 3 -5 15 -8 27 -8 13 0 31 -9 40
-19 10 -11 24 -17 32 -14 10 4 12 0 8 -11 -4 -11 -1 -16 11 -16 9 0 13 4 10
10 -3 6 1 7 9 4 10 -4 16 -1 16 9 0 23 -57 53 -137 71 -91 20 -132 20 -161 0z"/>
<path d="M5840 3765 c-30 -7 -80 -24 -111 -38 -31 -14 -59 -25 -61 -24 -2 1 0
-2 4 -7 12 -15 10 -28 -3 -20 -7 4 -10 1 -7 -7 4 -10 20 -13 59 -11 55 4 74
11 52 19 -22 8 -14 27 19 46 21 12 34 15 36 8 2 -6 21 -11 42 -11 21 0 40 -5
42 -10 3 -10 30 -14 77 -11 16 1 21 6 18 15 -3 8 -1 17 6 19 17 6 -68 47 -95
46 -13 -1 -48 -7 -78 -14z m40 -9 c0 -3 -4 -8 -10 -11 -5 -3 -10 -1 -10 4 0 6
5 11 10 11 6 0 10 -2 10 -4z m70 -10 c0 -3 -4 -8 -10 -11 -5 -3 -10 -1 -10 4
0 6 5 11 10 11 6 0 10 -2 10 -4z"/>
<path d="M6941 3724 c0 -11 3 -14 6 -6 3 7 2 16 -1 19 -3 4 -6 -2 -5 -13z"/>
<path d="M5606 3713 c-6 -14 -5 -15 5 -6 7 7 10 15 7 18 -3 3 -9 -2 -12 -12z"/>
<path d="M6510 3685 c-15 -8 -19 -14 -10 -14 18 -1 46 16 40 23 -3 2 -16 -2
-30 -9z"/>
<path d="M6902 3668 c-8 -30 -6 -34 17 -42 42 -14 60 -36 67 -81 7 -49 -23
-130 -53 -143 -26 -10 -27 -49 -3 -62 26 -14 40 -6 33 19 -6 24 15 91 28 91 6
0 8 4 4 9 -3 5 0 13 6 17 13 7 6 60 -15 126 -8 24 -17 56 -21 72 -5 24 -8 27
-16 15 -8 -11 -12 -11 -16 -1 -9 22 -22 13 -31 -20z"/>
<path d="M5976 3682 c-3 -5 1 -9 9 -9 8 0 12 4 9 9 -3 4 -7 8 -9 8 -2 0 -6 -4
-9 -8z"/>
<path d="M5500 3673 c0 -4 5 -15 10 -23 8 -13 10 -13 10 2 0 9 -4 20 -10 23
-5 3 -10 3 -10 -2z"/>
<path d="M5850 3641 c0 -5 9 -7 20 -4 11 3 20 7 20 9 0 2 -9 4 -20 4 -11 0
-20 -4 -20 -9z"/>
<path d="M5545 3510 c-4 -17 -5 -34 -2 -36 2 -3 7 10 11 27 8 42 0 50 -9 9z"/>
<path d="M6323 3508 c35 -30 49 -77 33 -109 -12 -25 -22 -26 -97 -13 -27 4
-44 1 -64 -12 -17 -11 -42 -17 -69 -15 -30 1 -38 -1 -30 -9 13 -13 107 -16
125 -4 7 4 42 8 77 9 54 1 66 4 81 23 12 17 19 20 28 11 7 -7 13 -7 17 -1 9
15 -69 114 -101 130 l-28 13 28 -23z"/>
<path d="M5587 3375 c2 -49 10 -115 16 -145 6 -30 12 -59 12 -65 1 -5 7 -27
15 -47 15 -41 30 -50 27 -19 0 11 -5 17 -9 15 -4 -3 -8 8 -8 25 0 17 -7 51
-16 77 -9 26 -14 60 -12 76 3 16 -3 62 -13 101 l-17 72 5 -90z"/>
<path d="M5993 3370 c-4 -16 -11 -19 -27 -14 -19 6 -20 5 -5 -11 15 -15 19
-15 55 2 51 23 51 23 34 33 -25 16 -52 11 -57 -10z"/>
<path d="M6896 3333 c-9 -9 -7 -33 3 -33 12 0 22 28 12 34 -5 3 -11 3 -15 -1z"/>
<path d="M6015 3170 c-4 -6 -10 -8 -13 -6 -13 8 -97 -40 -100 -57 -2 -11 1
-15 10 -12 8 3 21 -7 31 -24 10 -17 29 -32 45 -35 61 -14 72 -14 72 -5 0 6 4
8 9 4 5 -3 13 0 17 6 4 7 3 9 -3 6 -6 -4 -13 0 -17 8 -3 9 -12 12 -23 8 -10
-3 -15 -3 -11 2 4 4 3 14 -3 22 -9 9 -8 13 0 13 6 0 11 -5 11 -10 0 -10 15 -9
103 5 23 4 37 3 37 -4 0 -7 8 -7 25 -1 14 5 36 12 50 14 22 4 23 2 13 -14 -7
-10 -15 -17 -19 -14 -14 8 -20 -15 -10 -33 6 -10 11 -13 11 -6 0 6 8 9 18 7
27 -7 88 18 137 56 47 37 57 59 28 61 -10 1 -29 2 -43 3 -14 1 -35 6 -48 10
-14 5 -29 3 -37 -4 -12 -10 -18 -10 -30 0 -12 10 -21 10 -40 2 -14 -7 -25 -8
-25 -3 0 18 -48 8 -57 -12 -8 -18 -11 -18 -23 -5 -13 13 -16 13 -29 1 -7 -8
-17 -11 -20 -6 -8 11 -42 10 -59 -1 -11 -7 -12 -4 -3 13 12 21 8 30 -4 11z
m245 -10 c0 -5 -5 -10 -11 -10 -5 0 -7 5 -4 10 3 6 8 10 11 10 2 0 4 -4 4 -10z
m30 -100 c-8 -5 -19 -10 -25 -10 -5 0 -3 5 5 10 8 5 20 10 25 10 6 0 3 -5 -5
-10z"/>
<path d="M6561 3144 c0 -11 3 -14 6 -6 3 7 2 16 -1 19 -3 4 -6 -2 -5 -13z"/>
<path d="M2348 3034 c-9 -20 -9 -45 3 -117 9 -51 12 -93 7 -95 -4 -2 -8 -8 -8
-13 0 -6 -9 -28 -20 -50 -16 -35 -17 -40 -3 -35 8 4 22 1 29 -5 11 -9 14 -9
14 0 0 7 10 11 23 9 15 -2 21 -9 19 -20 -2 -10 2 -18 8 -18 5 0 27 -26 46 -57
71 -113 178 -270 279 -408 177 -244 248 -353 420 -640 93 -154 179 -294 193
-312 13 -18 26 -50 29 -73 3 -22 10 -40 14 -40 5 0 9 4 9 9 0 5 2 16 5 23 3 8
-12 41 -33 74 -21 32 -103 167 -182 299 -183 306 -218 358 -430 656 -178 248
-306 442 -353 535 -30 59 -68 250 -56 282 12 31 1 27 -13 -4z m31 -281 c-15
-18 -34 -1 -25 22 5 14 9 15 21 5 12 -10 13 -16 4 -27z"/>
<path d="M5670 3043 c0 -7 12 -25 28 -41 15 -15 20 -19 11 -7 -9 11 -21 29
-27 40 -6 11 -12 14 -12 8z"/>
<path d="M6123 3035 c0 -13 32 -16 39 -4 2 2 1 3 -1 2 -2 -1 -11 2 -21 7 -12
6 -17 5 -17 -5z"/>
<path d="M1745 2990 c-44 -16 -96 -30 -116 -30 -25 0 -48 -9 -74 -30 -26 -21
-49 -30 -74 -30 -35 -1 -35 -1 -16 -17 20 -15 20 -15 -4 -10 l-23 6 21 -20
c26 -24 27 -31 3 -27 -11 2 -27 -4 -37 -12 -17 -14 -18 -13 -11 5 15 37 15 64
0 58 -8 -3 -11 -10 -7 -16 3 -6 1 -7 -5 -3 -6 3 -25 -2 -43 -13 -18 -11 -36
-18 -41 -15 -12 8 -49 -6 -43 -16 3 -5 -1 -10 -7 -13 -8 -3 -1 -9 15 -16 32
-13 36 -26 5 -18 -14 4 -26 0 -34 -11 -13 -16 -13 -16 -14 0 0 9 5 20 11 24 8
4 7 9 -2 15 -10 6 -11 9 -1 9 6 0 12 5 12 10 0 7 -7 7 -20 0 -11 -6 -18 -15
-15 -21 4 -5 3 -8 -2 -7 -12 3 -83 -25 -83 -34 0 -4 17 -10 38 -14 20 -4 45
-11 54 -15 11 -6 18 -5 21 4 3 7 6 5 6 -5 1 -23 4 -23 87 6 145 50 278 108
296 129 11 12 16 16 13 8 -9 -16 7 -12 123 35 91 36 172 80 172 93 0 10 -51
21 -94 20 -17 0 -67 -13 -111 -29z m75 0 c-8 -5 -17 -7 -19 -4 -3 3 1 9 9 14
8 5 17 7 19 4 3 -3 -1 -9 -9 -14z m75 10 c3 -6 -1 -7 -9 -4 -18 7 -21 14 -7
14 6 0 13 -4 16 -10z m-64 -28 c30 5 22 -16 -8 -23 -15 -4 -32 -7 -38 -9 -26
-6 -36 0 -26 19 6 10 7 21 3 25 -3 4 6 2 22 -4 16 -6 37 -9 47 -8z m-194 -28
c-3 -3 -12 -4 -19 -1 -8 3 -5 6 6 6 11 1 17 -2 13 -5z m103 2 c0 -3 -4 -8 -10
-11 -5 -3 -10 -1 -10 4 0 6 5 11 10 11 6 0 10 -2 10 -4z m-120 -21 c17 -9 30
-20 30 -26 0 -6 -7 -6 -20 1 -15 8 -21 6 -29 -8 -7 -13 -7 -22 1 -30 7 -7 8
-12 2 -12 -5 0 -15 9 -22 21 -8 13 -19 18 -29 15 -13 -5 -14 -4 -4 8 7 8 18
13 26 10 18 -7 31 16 14 27 -23 15 0 10 31 -6z m-232 -95 c-7 -10 -14 -17 -17
-15 -4 4 18 35 25 35 2 0 -1 -9 -8 -20z m-63 -28 c-3 -3 -11 0 -18 7 -9 10 -8
11 6 5 10 -3 15 -9 12 -12z m165 14 c0 -2 -7 -9 -15 -16 -13 -11 -14 -10 -9 4
5 14 24 23 24 12z m-90 -26 c0 -5 -2 -10 -4 -10 -3 0 -8 5 -11 10 -3 6 -1 10
4 10 6 0 11 -4 11 -10z m-49 -33 c-10 -9 -11 -8 -5 6 3 10 9 15 12 12 3 -3 0
-11 -7 -18z"/>
<path d="M2006 3003 c-4 -4 -15 -8 -24 -8 -9 0 -17 -7 -17 -16 0 -10 -16 -31
-35 -48 -40 -36 -35 -39 19 -12 23 12 43 32 51 51 9 23 16 28 24 20 8 -8 7
-13 -4 -20 -8 -5 -11 -12 -8 -16 4 -4 19 1 34 11 14 9 22 20 18 25 -14 13 -50
21 -58 13z"/>
<path d="M6095 2989 c-12 -5 8 -8 53 -8 43 -1 71 3 67 8 -6 11 -92 11 -120 0z"/>
<path d="M2127 2951 c-4 -17 -3 -21 5 -13 5 5 8 16 6 23 -3 8 -7 3 -11 -10z"/>
<path d="M4027 2879 c7 -7 15 -10 18 -7 3 3 -2 9 -12 12 -14 6 -15 5 -6 -5z"/>
<path d="M4080 2870 c8 -5 20 -10 25 -10 6 0 3 5 -5 10 -8 5 -19 10 -25 10 -5
0 -3 -5 5 -10z"/>
<path d="M4120 2854 c0 -12 78 -49 86 -41 11 10 -7 29 -23 23 -8 -3 -11 -1 -8
4 3 6 0 10 -9 10 -8 0 -21 3 -30 6 -9 3 -16 2 -16 -2z"/>
<path d="M3990 2820 c82 -33 89 -35 75 -21 -13 13 -116 51 -135 51 -8 -1 19
-14 60 -30z"/>
<path d="M4120 2825 c0 -2 18 -14 40 -25 50 -25 53 -19 4 9 -36 22 -44 24 -44
16z"/>
<path d="M6490 2826 c0 -2 7 -7 16 -10 8 -3 12 -2 9 4 -6 10 -25 14 -25 6z"/>
<path d="M4235 2791 c-2 -5 5 -15 18 -24 20 -13 24 -13 37 1 13 14 12 15 -3 9
-9 -3 -17 -2 -17 2 0 12 -28 22 -35 12z"/>
<path d="M6315 2770 c10 -11 20 -20 22 -20 2 0 -1 9 -7 20 -6 11 -16 20 -22
20 -6 0 -3 -9 7 -20z"/>
<path d="M4317 2750 c7 -25 23 -37 23 -17 0 8 -6 20 -14 26 -12 10 -13 8 -9
-9z"/>
<path d="M5426 2745 c-3 -8 2 -16 10 -19 8 -3 13 -2 10 3 -3 5 6 11 20 14 52
10 15 -19 -74 -58 -99 -43 -111 -57 -22 -26 105 36 138 54 143 78 4 20 1 22
-39 21 -25 0 -45 -6 -48 -13z"/>
<path d="M5530 2744 c0 -10 7 -14 22 -12 32 5 35 28 4 28 -17 0 -26 -5 -26
-16z"/>
<path d="M5363 2734 c-18 -8 -33 -21 -33 -29 0 -23 16 -18 50 15 34 33 31 35
-17 14z"/>
<path d="M3068 2688 c-60 -71 -62 -77 -45 -96 18 -21 159 -261 290 -496 56
-99 102 -176 103 -170 2 5 14 72 28 149 20 115 22 150 14 195 -5 30 -9 66 -9
80 2 45 31 130 45 130 8 0 17 15 20 35 6 32 2 44 -40 103 -71 101 -94 123
-114 112 -10 -5 -68 -12 -129 -16 -100 -5 -111 -4 -105 10 12 32 -14 15 -58
-36z"/>
<path d="M7298 2726 c-11 -8 -36 -12 -63 -10 -46 4 -66 -9 -46 -29 9 -9 14 -8
20 2 5 7 14 10 20 7 6 -4 11 -1 11 6 0 7 13 -1 28 -19 25 -29 350 -216 551
-317 l72 -37 56 41 56 40 -54 25 c-30 14 -62 25 -71 25 -10 0 -18 4 -18 10 0
5 -13 16 -30 25 -34 17 -44 19 -35 5 3 -5 1 -10 -5 -10 -6 0 -9 -4 -6 -9 3 -5
-3 -11 -14 -14 -23 -6 -27 8 -5 17 28 10 15 31 -35 59 -32 18 -57 26 -70 22
-11 -4 -20 -2 -20 4 0 6 5 11 11 11 5 0 7 5 3 12 -6 9 -9 9 -12 0 -2 -7 -8
-10 -13 -6 -15 9 -10 -13 6 -26 8 -7 15 -17 15 -22 0 -14 -30 -41 -38 -34 -3
4 -1 11 6 15 7 4 10 15 6 24 -5 13 -10 14 -26 6 -15 -8 -17 -14 -9 -22 6 -6
11 -16 11 -21 0 -6 -7 -2 -15 8 -9 12 -12 29 -8 44 5 20 2 23 -13 20 -13 -3
-18 -11 -17 -28 2 -22 1 -23 -8 -7 -8 13 -7 22 1 33 17 19 37 18 49 -3 5 -10
12 -15 16 -11 12 12 -63 76 -137 116 -75 41 -117 55 -117 37 -1 -5 5 -11 12
-11 6 -1 18 -2 25 -3 6 0 12 -8 12 -16 0 -8 7 -15 15 -15 18 0 20 -16 3 -24
-9 -4 -8 -5 2 -5 33 2 53 -1 46 -8 -4 -5 -23 -8 -42 -8 -29 0 -34 3 -30 17 2
10 0 21 -5 24 -5 3 -6 10 -3 16 4 7 2 8 -5 4 -13 -8 -71 14 -71 27 0 5 4 5 10
2 6 -3 7 1 4 9 -3 9 -7 16 -8 16 0 0 -9 -7 -18 -14z m42 -56 c0 -10 -27 -3
-47 13 -25 19 -13 27 17 12 17 -9 30 -20 30 -25z m40 -10 c13 -8 13 -10 -2
-10 -9 0 -20 5 -23 10 -8 13 5 13 25 0z m294 -116 c3 -8 2 -12 -4 -9 -6 3 -10
10 -10 16 0 14 7 11 14 -7z m151 -64 c-3 -5 -10 -10 -16 -10 -5 0 -9 5 -9 10
0 6 7 10 16 10 8 0 12 -4 9 -10z m21 -17 c-1 -12 5 -17 17 -15 16 3 16 1 5
-17 -16 -26 -24 -26 -31 0 -5 18 -9 19 -27 9 -24 -13 -22 -33 5 -38 12 -3 15
0 9 10 -6 10 -5 11 7 2 8 -7 23 -14 34 -17 11 -2 -1 -5 -26 -6 -52 -1 -65 13
-49 51 5 13 9 19 9 15 1 -5 11 -1 23 7 27 20 26 20 24 -1z m-86 -34 c0 -6 -4
-7 -10 -4 -5 3 -10 11 -10 16 0 6 5 7 10 4 6 -3 10 -11 10 -16z"/>
<path d="M1435 2720 c-3 -6 1 -7 9 -4 18 7 21 14 7 14 -6 0 -13 -4 -16 -10z"/>
<path d="M4360 2711 c0 -9 56 -35 64 -30 3 2 12 -5 21 -16 15 -18 16 -18 11
-2 -3 10 -6 20 -6 23 0 7 -59 34 -75 34 -8 0 -15 -4 -15 -9z"/>
<path d="M6204 2680 c1 -14 6 -24 9 -22 11 4 11 6 -1 27 -11 19 -12 18 -8 -5z"/>
<path d="M1325 2680 c-3 -6 1 -7 9 -4 18 7 21 14 7 14 -6 0 -13 -4 -16 -10z"/>
<path d="M5143 2683 c-7 -2 -9 -11 -6 -20 4 -9 2 -14 -3 -10 -6 3 -16 2 -24
-4 -13 -7 -12 -9 3 -9 9 0 17 -5 17 -11 0 -5 -5 -7 -10 -4 -6 3 -17 -1 -26 -9
-16 -17 -50 -21 -58 -8 -6 10 -86 3 -86 -8 0 -4 -9 -10 -20 -13 -11 -3 -20
-10 -20 -17 0 -6 4 -8 10 -5 7 4 7 -2 0 -19 -9 -24 -8 -25 16 -16 14 6 35 15
46 21 20 11 20 12 3 22 -14 7 -21 6 -32 -9 -7 -10 -13 -13 -13 -5 0 33 45 45
62 16 6 -9 34 -2 110 28 57 22 105 44 106 49 2 4 7 6 12 3 11 -7 70 15 70 26
0 5 -11 4 -24 -3 -14 -6 -32 -7 -43 -2 -20 9 -72 13 -90 7z m77 -13 c0 -5 -4
-10 -9 -10 -6 0 -13 5 -16 10 -3 6 1 10 9 10 9 0 16 -4 16 -10z m-45 -20 c3
-6 -1 -7 -9 -4 -18 7 -21 14 -7 14 6 0 13 -4 16 -10z"/>
<path d="M3500 2621 c0 -6 4 -13 10 -16 6 -3 7 1 4 9 -7 18 -14 21 -14 7z"/>
<path d="M4472 2584 c10 -10 20 -15 24 -12 3 4 -5 12 -18 18 -22 12 -22 12 -6
-6z"/>
<path d="M6020 2568 c0 -19 37 -31 47 -15 3 7 2 9 -2 4 -5 -4 -17 0 -27 10
-16 14 -18 14 -18 1z"/>
<path d="M6857 2538 c-4 -12 -4 -24 -2 -27 3 -2 5 1 5 7 0 7 10 12 21 12 18 0
19 2 9 15 -17 21 -27 19 -33 -7z"/>
<path d="M2290 2530 c0 -5 6 -10 14 -10 7 0 19 -7 26 -15 16 -19 11 -19 -35 1
-20 8 -34 10 -30 5 3 -6 1 -11 -4 -11 -6 0 -11 6 -11 13 0 6 -5 4 -11 -5 -5
-10 -18 -18 -27 -18 -15 1 -15 2 2 15 19 14 18 15 -11 15 -17 0 -35 -6 -41
-13 -12 -14 -3 -67 17 -105 14 -27 25 -29 16 -3 -3 11 0 23 6 27 8 4 9 3 5 -4
-4 -7 -2 -12 3 -12 15 0 14 6 -5 35 -9 14 -15 25 -13 26 2 0 11 2 19 4 79 18
79 18 85 -8 4 -14 4 -31 0 -37 -5 -7 0 -11 11 -10 53 6 61 -14 12 -29 -18 -5
-28 -10 -21 -10 7 -1 10 -8 7 -16 -10 -25 13 -17 50 19 26 24 36 41 35 62 -2
53 -14 79 -36 79 -12 0 -25 3 -29 8 -11 10 -34 9 -34 -3z"/>
<path d="M3860 2536 c0 -2 8 -10 18 -17 15 -13 16 -12 3 4 -13 16 -21 21 -21
13z"/>
<path d="M6105 2530 c-11 -18 11 -36 28 -22 10 9 17 8 26 -1 11 -10 11 -8 2
11 -13 24 -31 30 -31 10 0 -10 -3 -9 -9 1 -6 10 -10 10 -16 1z"/>
<path d="M3908 2508 c-14 -9 -11 -12 67 -73 77 -60 85 -76 61 -110 -26 -38
-39 -94 -26 -110 7 -8 15 -13 19 -10 4 2 29 -12 56 -31 56 -40 99 -44 116 -13
24 45 -22 135 -81 159 -28 11 -28 13 -14 35 13 21 13 27 0 60 -9 20 -20 34
-25 30 -6 -3 -13 5 -17 19 -10 41 -104 73 -104 35 0 -6 7 -8 17 -5 14 6 14 4
-2 -14 -18 -20 -20 -20 -26 -3 -3 10 -4 23 -2 29 5 13 -21 14 -39 2z m135 -55
c4 -2 5 -9 2 -14 -4 -5 1 -9 9 -9 9 0 16 -4 16 -8 0 -17 -59 0 -65 19 -4 11
-12 16 -21 12 -7 -3 -14 0 -14 7 0 11 51 6 73 -7z m55 -81 c-16 -18 -32 1 -23
28 6 20 7 20 20 3 10 -13 10 -22 3 -31z"/>
<path d="M5953 2355 c-33 -30 -63 -51 -67 -48 -9 9 -8 2 10 -74 9 -37 30 -156
48 -263 29 -176 34 -193 45 -171 8 14 83 131 167 262 85 131 154 242 154 248
0 15 -54 41 -87 41 -22 0 -25 2 -13 10 9 6 10 10 3 10 -6 0 -15 -5 -19 -11 -4
-7 -25 -9 -62 -4 -50 6 -110 23 -88 24 10 1 -13 31 -24 31 -3 0 -34 -25 -67
-55z m53 -288 l24 -47 -22 -31 -23 -30 -6 33 c-12 58 -16 150 -7 136 5 -7 20
-34 34 -61z"/>
<path d="M5791 2344 c0 -11 3 -14 6 -6 3 7 2 16 -1 19 -3 4 -6 -2 -5 -13z"/>
<path d="M2230 2297 c0 -36 22 -162 30 -172 5 -6 38 -12 73 -13 l65 -3 7 74
c11 111 10 112 -90 123 -79 9 -85 8 -85 -9z"/>
<path d="M5801 2284 c0 -11 3 -14 6 -6 3 7 2 16 -1 19 -3 4 -6 -2 -5 -13z"/>
<path d="M6893 2250 c-44 -19 -56 -42 -56 -104 0 -35 42 -76 79 -76 29 0 31
-13 4 -40 -19 -19 -19 -20 0 -30 11 -6 31 -8 45 -4 15 4 25 2 25 -5 0 -11 26
-5 47 11 8 6 5 16 -13 35 l-23 25 41 22 c54 27 67 62 41 113 -10 20 -27 38
-37 39 -10 2 -22 8 -26 14 -10 16 -23 -17 -13 -33 3 -7 -3 -3 -15 7 -26 22
-28 28 -7 20 8 -4 15 -2 15 4 0 8 -22 22 -36 22 -2 0 -4 -11 -4 -24 0 -22 -16
-36 -41 -36 -19 0 -8 37 14 48 39 19 4 12 -40 -8z m7 -14 c0 -2 -8 -10 -17
-17 -16 -13 -17 -12 -4 4 13 16 21 21 21 13z m170 -27 c0 -6 -4 -7 -10 -4 -5
3 -10 11 -10 16 0 6 5 7 10 4 6 -3 10 -11 10 -16z m-40 -15 c0 -2 -10 -9 -22
-15 -13 -6 -20 -8 -16 -4 4 4 0 13 -9 20 -13 10 -11 11 15 7 18 -2 32 -6 32
-8z m-72 2 c-2 -1 -10 -7 -19 -14 -14 -10 -18 -10 -22 1 -4 10 2 15 19 15 14
0 24 -1 22 -2z m-13 -56 c10 8 15 8 20 -1 6 -8 10 -7 17 2 8 11 9 10 5 -3 -7
-21 29 -32 38 -10 3 8 1 18 -5 22 -5 3 6 6 25 7 40 1 44 -11 14 -43 -18 -19
-24 -20 -52 -10 -18 6 -38 18 -45 26 -12 13 -13 13 -9 0 4 -17 -16 -40 -36
-40 -18 0 -43 28 -49 57 l-6 21 35 -19 c26 -15 38 -17 48 -9z"/>
<path d="M7045 2130 c-3 -5 -1 -10 4 -10 6 0 11 5 11 10 0 6 -2 10 -4 10 -3 0
-8 -4 -11 -10z"/>
<path d="M5811 2214 c0 -11 3 -14 6 -6 3 7 2 16 -1 19 -3 4 -6 -2 -5 -13z"/>
<path d="M3915 2053 c-9 -21 -9 -20 -1 -55 5 -22 3 -26 -9 -21 -10 3 -14 12
-10 22 11 28 -10 -1 -44 -61 -18 -32 -31 -58 -28 -58 2 0 18 20 36 45 39 55
56 50 71 -18 18 -88 41 -146 62 -162 32 -22 38 -9 22 43 -8 26 -26 92 -40 146
-14 55 -31 108 -38 118 -13 18 -14 18 -21 1z"/>
<path d="M2188 2052 l-168 -2 1 -63 c1 -34 4 -51 6 -37 l5 24 13 -24 c11 -21
11 -26 -4 -37 -13 -10 46 -12 314 -10 l330 2 0 67 c0 36 -2 68 -5 71 -7 7
-297 12 -492 9z m-62 -49 c-11 -3 -14 -8 -8 -12 7 -4 6 -12 -4 -25 -13 -19
-14 -18 -14 12 0 27 4 32 23 31 19 -1 19 -2 3 -6z m64 -34 c0 -4 -9 -9 -20
-12 -22 -6 -23 -3 -13 32 6 23 7 23 20 6 7 -11 13 -22 13 -26z m45 11 c0 -16
-6 -26 -17 -28 -14 -3 -18 3 -18 28 0 25 4 31 18 28 11 -2 17 -12 17 -28z m39
-22 c7 -5 5 -8 -6 -8 -14 0 -18 8 -17 33 2 27 2 28 6 7 3 -14 10 -28 17 -32z
m43 43 c12 11 12 9 2 -15 -12 -25 -14 -26 -20 -9 -4 10 -8 23 -8 28 1 6 3 4 6
-3 4 -10 8 -10 20 -1z m78 -31 c4 -17 3 -21 -3 -11 -5 7 -15 10 -21 7 -6 -4
-11 -2 -11 3 0 6 4 11 10 11 5 0 7 8 3 18 -4 11 -3 14 4 7 6 -5 14 -21 18 -35z
m34 23 c6 -13 5 -22 -5 -31 -12 -11 -14 -8 -14 18 0 34 5 38 19 13z m30 -15
c0 -31 -1 -31 -10 -10 -5 13 -7 28 -3 33 10 16 14 9 13 -23z m47 -1 c2 -23 0
-26 -11 -17 -10 8 -14 8 -18 -2 -3 -7 -6 2 -6 20 -1 26 3 33 15 30 10 -2 18
-15 20 -31z m49 -25 c-3 -3 -9 5 -12 18 -6 22 -7 23 -14 4 -7 -18 -8 -18 -8 2
-1 33 12 37 27 8 7 -14 11 -29 7 -32z m36 48 c0 9 5 6 11 -8 8 -17 8 -26 0
-34 -9 -9 -12 -9 -12 3 0 12 -2 12 -10 -1 -7 -11 -10 -6 -10 20 0 26 3 31 10
20 9 -13 10 -13 11 0z"/>
<path d="M2210 1980 c0 -11 5 -20 10 -20 6 0 10 9 10 20 0 11 -4 20 -10 20 -5
0 -10 -9 -10 -20z"/>
<path d="M3984 2022 c8 -15 17 -50 21 -77 10 -70 24 -123 46 -172 10 -23 16
-48 13 -56 -4 -11 6 -19 30 -27 39 -12 43 -19 24 -39 -11 -10 -10 -11 5 -6 9
4 17 11 17 16 0 5 4 9 10 9 13 0 73 -119 67 -134 -3 -7 6 -34 19 -61 13 -27
19 -52 14 -55 -4 -3 -12 -18 -15 -33 -4 -15 -15 -31 -24 -36 -8 -5 -13 -13 -9
-17 4 -4 14 -1 23 6 12 10 15 10 15 -1 0 -8 5 -6 14 6 13 18 14 18 21 -6 4
-13 12 -27 16 -30 5 -3 11 -19 12 -36 2 -16 8 -36 13 -44 14 -23 13 -71 -2
-94 -8 -12 -11 -24 -8 -28 3 -3 -3 -18 -13 -34 -29 -42 -38 -62 -13 -30 25 32
69 57 100 57 12 0 35 -14 52 -30 34 -35 34 -32 -7 33 -16 26 -35 47 -40 47 -6
0 -12 17 -13 38 -1 26 1 31 7 18 9 -24 15 -15 31 43 6 23 14 40 17 37 10 -10
64 24 57 36 -4 7 -3 8 5 4 6 -4 18 -2 26 4 8 6 19 8 26 4 7 -4 9 -2 5 7 -3 8
-9 22 -12 32 -9 24 -44 22 -44 -2 0 -11 -4 -22 -9 -25 -4 -3 -7 7 -5 22 l4 27
-9 -25 c-12 -38 -34 -70 -47 -70 -7 0 -21 -16 -33 -35 -11 -19 -24 -35 -29
-35 -9 0 -51 87 -57 119 -3 17 -25 86 -58 186 -33 102 -55 204 -43 202 14 -2
45 -74 45 -104 1 -13 -5 -23 -11 -23 -8 0 -9 -3 -3 -8 17 -13 55 -90 55 -114
1 -19 4 -17 21 14 20 39 52 63 69 53 6 -3 10 -2 10 4 0 5 -4 13 -10 16 -5 3
-10 11 -10 17 0 7 6 6 15 -2 8 -7 15 -18 15 -26 0 -7 5 -16 11 -20 8 -5 10 4
7 29 -6 55 9 34 17 -23 5 -33 12 -50 21 -50 8 0 14 5 14 11 0 7 8 18 18 25 14
11 15 16 4 33 -7 12 -8 21 -3 21 5 0 11 -5 13 -11 3 -9 9 -9 24 -1 25 13 60 6
68 -14 4 -11 2 -12 -14 -4 -10 5 -23 10 -29 10 -18 0 -51 -39 -51 -60 0 -11
-10 -30 -22 -42 l-21 -21 21 -8 c12 -5 22 -15 22 -24 0 -8 7 -15 15 -15 18 0
19 9 5 44 -5 14 -6 25 -2 25 22 -4 30 4 28 25 -1 20 -4 22 -18 15 -24 -13 -23
4 1 25 29 27 53 16 79 -34 40 -80 24 -182 -31 -188 -15 -2 -27 -8 -27 -13 0
-6 4 -7 10 -4 5 3 19 0 31 -9 20 -13 20 -14 2 -19 -14 -4 -14 -5 -2 -6 29 -2
54 38 54 85 0 24 4 44 8 44 5 0 5 5 1 11 -4 7 -7 25 -6 40 0 16 -3 29 -8 29
-5 0 -8 13 -8 28 1 15 -4 37 -10 49 -7 12 -13 41 -16 65 -2 23 -12 61 -21 83
-28 64 -55 167 -55 208 0 45 -15 77 -35 77 -11 0 -12 -5 -5 -26 6 -14 10 -38
10 -54 0 -42 46 -197 70 -235 11 -18 17 -35 13 -39 -4 -4 -1 -11 7 -16 13 -9
13 -10 0 -10 -23 0 -43 16 -36 29 4 5 -4 32 -18 59 -28 55 -66 194 -66 241 0
29 -29 71 -49 71 -8 0 3 -92 14 -110 4 -6 10 -46 14 -89 5 -43 16 -93 25 -111
20 -41 20 -50 0 -50 -9 0 -14 6 -11 13 3 7 -1 24 -9 38 -7 13 -13 20 -14 16 0
-5 5 -17 10 -28 7 -13 7 -19 0 -19 -5 0 -10 5 -10 11 0 6 -19 42 -41 81 -38
64 -75 166 -64 176 4 5 39 -71 70 -151 10 -26 19 -46 20 -45 5 5 -22 122 -39
171 -9 26 -16 61 -16 77 0 24 -4 30 -21 30 -11 0 -18 -4 -15 -9 4 -5 3 -17 -1
-28 -6 -15 -8 -13 -13 12 -3 17 -12 31 -22 33 -17 3 -18 10 14 -133 12 -56 58
-153 95 -203 14 -18 22 -36 19 -39 -3 -4 -6 -1 -6 6 0 8 -7 11 -15 7 -15 -5
-50 34 -78 89 -23 47 -67 183 -67 210 0 37 -18 75 -35 75 -9 0 -13 -4 -10 -10
3 -5 11 -37 16 -71 11 -70 67 -215 105 -272 14 -21 23 -41 20 -44 -4 -4 -66
34 -66 41 0 1 -16 40 -36 86 -19 47 -44 125 -55 174 -10 49 -20 91 -22 93 -2
1 -19 6 -38 10 -28 5 -32 4 -23 -8 7 -8 17 -48 23 -89 7 -41 19 -98 28 -127
20 -69 10 -101 -16 -50 -23 45 -38 103 -47 186 -9 80 -27 101 -89 101 l-46 0
15 -28z m466 -67 c0 -8 -4 -15 -10 -15 -5 0 -7 7 -4 15 4 8 8 15 10 15 2 0 4
-7 4 -15z m17 -107 c-3 -8 -6 -5 -6 6 -1 11 2 17 5 13 3 -3 4 -12 1 -19z m10
-75 c-3 -10 -5 -4 -5 12 0 17 2 24 5 18 2 -7 2 -21 0 -30z m-170 -154 c-7 -24
33 -55 45 -36 5 8 8 8 8 1 0 -6 -7 -17 -16 -24 -12 -11 -18 -10 -34 6 -11 10
-22 34 -26 52 -6 28 -4 31 11 26 10 -4 15 -14 12 -25z m163 -46 c0 -5 -5 -15
-10 -23 -8 -12 -10 -11 -10 8 0 12 5 22 10 22 6 0 10 -3 10 -7z m162 -255 c-8
-8 -9 -4 -5 13 4 13 8 18 11 10 2 -7 -1 -18 -6 -23z m-273 -120 c0 -13 -3 -17
-6 -10 -2 6 -9 10 -14 7 -5 -4 -6 1 -3 9 9 24 24 19 23 -6z m-11 -83 c-3 -3
-9 2 -12 12 -6 14 -5 15 5 6 7 -7 10 -15 7 -18z"/>
<path d="M6826 2041 c-4 -5 3 -7 14 -4 23 6 26 13 6 13 -8 0 -17 -4 -20 -9z"/>
<path d="M7214 2022 c-16 -19 -35 -27 -85 -33 -35 -5 -85 -17 -110 -26 -44
-15 -49 -15 -82 0 -49 23 -156 50 -173 43 -28 -11 -2 -28 32 -23 23 4 34 2 34
-6 1 -14 63 -47 90 -47 14 0 20 -7 21 -22 1 -15 3 -17 6 -7 3 11 12 15 29 11
33 -6 131 31 147 55 4 7 20 13 35 13 30 0 87 40 81 56 -2 6 -13 -1 -25 -14z"/>
<path d="M6615 1894 c-33 -25 -62 -50 -64 -56 -4 -13 36 16 94 66 55 49 42 44
-30 -10z"/>
<path d="M5862 1910 c0 -14 2 -19 5 -12 2 6 2 18 0 25 -3 6 -5 1 -5 -13z"/>
<path d="M7087 1903 c-4 -3 -7 -57 -7 -120 l0 -113 -27 -12 c-40 -17 -83 -48
-83 -59 0 -6 9 -5 21 2 25 13 73 -6 62 -25 -3 -6 -3 -8 2 -4 4 4 14 3 20 -2
18 -15 39 -4 75 41 31 39 32 42 37 169 l6 130 -50 0 c-27 0 -53 -3 -56 -7z"/>
<path d="M7236 1844 c-3 -26 -6 -75 -6 -110 0 -54 -3 -65 -21 -74 -17 -10 -20
-19 -17 -63 3 -49 4 -52 28 -49 14 2 26 5 26 5 6 8 11 337 5 337 -5 0 -11 -21
-15 -46z"/>
<path d="M7328 1759 c-3 -111 2 -152 17 -138 3 3 8 63 11 132 5 111 4 127 -9
127 -13 0 -16 -20 -19 -121z"/>
<path d="M5875 1796 c3 -43 5 -102 6 -130 0 -40 2 -47 10 -31 7 13 5 56 -5
130 -14 102 -15 104 -11 31z"/>
<path d="M6654 1830 c0 -13 4 -16 10 -10 7 7 7 13 0 20 -6 6 -10 3 -10 -10z"/>
<path d="M6829 1821 c-8 -20 -5 -44 4 -30 1 2 12 15 24 29 22 26 22 26 2 26
-13 0 -25 -10 -30 -25z"/>
<path d="M6940 1829 c0 -5 5 -7 10 -4 6 4 10 -5 10 -19 0 -27 15 -35 23 -13 4
9 8 8 16 -3 8 -12 11 -8 11 18 0 33 -19 41 -32 12 -5 -12 -7 -12 -7 3 -1 18
-31 25 -31 6z"/>
<path d="M5135 1800 l-210 -5 -7 -45 c-3 -25 -7 -57 -7 -72 l-1 -28 218 0
c119 0 222 4 228 8 6 4 14 32 16 62 3 30 9 63 13 73 6 14 3 17 -16 15 -13 -1
-118 -5 -234 -8z m130 -64 c0 -13 -2 -27 -5 -30 -5 -4 -6 43 -1 52 4 8 7 -1 6
-22z m-274 5 c5 8 9 9 9 3 0 -6 -10 -19 -22 -30 -20 -18 -21 -18 -15 -1 4 10
7 24 8 30 0 7 3 7 6 -2 5 -11 7 -11 14 0z m39 -14 c0 -14 -6 -24 -15 -24 -18
0 -18 2 -5 28 14 25 20 24 20 -4z m170 -17 c0 -13 -1 -13 -10 0 -5 8 -10 22
-10 30 0 13 1 13 10 0 5 -8 10 -22 10 -30z m28 1 c-15 -5 -19 4 -11 24 6 18 7
18 13 -1 4 -10 3 -21 -2 -23z m65 19 c3 -11 1 -20 -4 -20 -5 0 -9 9 -9 20 0
11 2 20 4 20 2 0 6 -9 9 -20z m-149 -20 c-6 -6 -10 -3 -10 10 0 13 4 16 10 10
7 -7 7 -13 0 -20z m176 14 c0 -8 -4 -12 -10 -9 -5 3 -10 10 -10 16 0 5 5 9 10
9 6 0 10 -7 10 -16z m-240 -9 c0 -8 -4 -15 -9 -15 -13 0 -22 16 -14 24 11 11
23 6 23 -9z"/>
<path d="M6460 1779 c-19 -17 -26 -26 -15 -20 31 15 60 39 55 44 -3 3 -21 -8
-40 -24z"/>
<path d="M2700 1787 c0 -20 -11 -22 -29 -4 -10 10 -11 9 -6 -5 4 -10 14 -18
21 -18 16 0 30 27 20 37 -3 4 -6 -1 -6 -10z"/>
<path d="M2726 1785 c-3 -9 0 -15 9 -15 9 0 12 6 9 15 -4 8 -7 15 -9 15 -2 0
-5 -7 -9 -15z"/>
<path d="M2767 1793 c-13 -12 -7 -21 17 -25 23 -5 45 17 31 30 -3 3 -5 0 -5
-6 0 -7 -9 -12 -21 -12 -11 0 -17 5 -14 10 7 11 2 13 -8 3z"/>
<path d="M2440 1769 c13 -9 12 -10 -2 -5 -23 7 -138 -14 -138 -25 0 -5 -7 -9
-15 -9 -8 0 -15 -6 -15 -14 0 -10 13 -13 56 -9 31 2 68 9 83 15 14 6 31 10 37
9 14 -2 27 27 18 40 -3 5 -13 9 -22 9 -15 0 -15 -2 -2 -11z"/>
<path d="M2622 1766 c7 -8 17 -12 22 -9 4 3 2 9 -5 14 -22 13 -31 11 -17 -5z"/>
<path d="M2828 1756 c-19 -14 -24 -41 -9 -50 4 -3 16 1 27 8 14 11 16 18 9 34
-9 18 -13 19 -27 8z m14 -28 c-6 -6 -15 -8 -19 -4 -4 4 -1 11 7 16 19 12 27 3
12 -12z"/>
<path d="M2705 1750 c-3 -5 -3 -10 2 -10 4 0 -3 -7 -15 -16 -18 -13 -21 -19
-11 -30 9 -11 7 -14 -10 -14 -11 0 -21 -6 -21 -14 0 -16 24 -38 32 -30 3 3 5
-1 5 -8 -1 -7 2 -14 6 -15 4 -1 14 -9 23 -17 10 -10 21 -13 37 -7 16 6 25 4
34 -8 10 -14 11 -13 6 6 -3 15 0 25 11 29 9 3 13 10 10 15 -3 6 6 7 23 4 l28
-6 -25 15 c-23 14 -23 15 -5 16 l20 1 -20 9 c-12 5 -14 9 -6 9 8 1 11 4 7 8
-3 4 -27 6 -52 4 -30 -1 -44 2 -39 8 3 6 15 11 26 11 10 0 19 6 19 14 0 9 -7
12 -21 9 -14 -4 -25 0 -31 11 -10 18 -24 21 -33 6z"/>
<path d="M2630 1731 c0 -6 4 -13 10 -16 6 -3 7 1 4 9 -7 18 -14 21 -14 7z"/>
<path d="M6734 1671 c-28 -14 -63 -35 -78 -46 -28 -21 -28 -21 -4 -20 26 0 81
38 71 49 -3 3 1 6 9 6 9 0 26 9 39 20 30 24 26 23 -37 -9z"/>
<path d="M6848 1645 c-52 -28 -68 -45 -41 -45 10 0 36 16 58 35 47 41 45 42
-17 10z"/>
<path d="M1920 1641 c0 -6 4 -13 10 -16 6 -3 7 1 4 9 -7 18 -14 21 -14 7z"/>
<path d="M2016 1631 c-11 -12 -13 -21 -7 -25 5 -4 15 3 21 15 15 28 7 34 -14
10z"/>
<path d="M2825 1610 c3 -5 11 -10 16 -10 6 0 7 5 4 10 -3 6 -11 10 -16 10 -6
0 -7 -4 -4 -10z"/>
<path d="M4110 1609 c0 -5 4 -7 10 -4 5 3 20 0 32 -6 21 -11 22 -11 9 4 -15
19 -51 23 -51 6z"/>
<path d="M2809 1598 c11 -14 11 -21 1 -33 -10 -12 -7 -12 19 1 17 8 34 21 38
27 4 7 -1 6 -10 -2 -15 -12 -20 -11 -40 5 -18 16 -19 16 -8 2z"/>
<path d="M6755 1590 c3 -5 10 -10 16 -10 5 0 9 5 9 10 0 6 -7 10 -16 10 -8 0
-12 -4 -9 -10z"/>
<path d="M4081 1564 c-11 -15 -21 -33 -21 -42 0 -8 11 2 25 23 30 44 27 58 -4
19z"/>
<path d="M2366 1558 c-23 -32 -20 -55 9 -74 23 -15 27 -15 50 0 40 26 49 52
25 76 -27 27 -65 26 -84 -2z m72 -22 c5 -22 -16 -46 -39 -46 -26 0 -44 37 -28
56 16 19 63 12 67 -10z"/>
<path d="M4132 1563 c2 -9 9 -18 17 -21 10 -3 12 0 8 11 -4 12 -1 15 11 11 14
-5 15 -4 2 5 -22 16 -42 13 -38 -6z"/>
<path d="M6925 1570 c3 -5 8 -10 11 -10 2 0 4 5 4 10 0 6 -5 10 -11 10 -5 0
-7 -4 -4 -10z"/>
<path d="M6757 1552 c-18 -20 -23 -47 -7 -37 6 3 10 2 10 -4 0 -18 -17 -21
-30 -6 -7 8 -19 15 -26 15 -8 0 -14 5 -14 10 0 6 -5 10 -11 10 -5 0 -7 -5 -3
-12 4 -6 -1 -17 -11 -24 -10 -8 -17 -15 -14 -16 2 -2 16 -14 31 -27 l27 -24
38 40 c41 42 102 61 89 27 -5 -13 -3 -14 6 -6 10 8 13 4 14 -14 1 -13 -2 -24
-7 -24 -6 0 -4 -6 3 -14 7 -8 16 -12 21 -9 14 8 30 -9 16 -18 -22 -14 -49 -10
-49 6 0 9 -7 18 -15 21 -21 8 -19 24 3 25 11 1 8 4 -8 8 -14 5 -32 4 -41 0 -9
-5 -19 -5 -23 -2 -3 3 -6 1 -6 -5 0 -6 9 -14 20 -17 11 -3 20 -10 20 -15 0 -4
8 -6 18 -3 12 3 18 -1 18 -15 0 -19 -1 -19 -67 -13 -4 1 -9 11 -12 22 -5 20
-7 20 -21 6 -22 -21 -2 -70 25 -62 52 17 81 13 37 -5 -18 -7 -12 -9 31 -9 36
-1 65 -8 87 -22 19 -11 34 -16 34 -11 0 20 35 5 38 -16 4 -24 25 -28 66 -12
35 13 33 24 -7 48 -25 14 -39 17 -51 10 -12 -7 -21 -7 -29 1 -14 14 14 25 47
19 17 -4 23 -1 19 9 -4 9 -17 12 -42 9 -20 -3 -37 -5 -38 -7 -2 -1 -7 -2 -12
-3 -5 0 -13 -4 -17 -8 -11 -12 -72 -9 -80 3 -4 7 7 10 36 7 l42 -3 3 37 c1 30
-1 36 -11 27 -8 -7 -14 -7 -19 1 -3 5 1 10 9 10 9 0 16 5 16 12 0 6 3 8 7 4 4
-4 7 -21 8 -39 0 -27 4 -32 25 -33 14 -1 27 1 30 5 3 3 18 13 34 21 56 29 66
35 66 42 0 13 35 9 56 -6 15 -12 17 -17 7 -27 -9 -9 -13 -10 -13 -1 0 6 -10
17 -22 23 -22 11 -22 10 2 -12 13 -13 28 -24 31 -24 4 0 11 -3 15 -7 8 -9 -22
-58 -36 -58 -14 0 -12 27 3 33 6 3 -1 5 -18 5 -16 0 -24 -2 -17 -5 6 -2 12
-11 12 -19 0 -9 -4 -12 -10 -9 -5 3 -10 -1 -10 -9 0 -9 7 -16 15 -16 8 0 15
-9 15 -20 0 -17 7 -20 41 -20 24 0 38 -4 34 -10 -3 -5 -17 -10 -30 -10 -12 0
-25 -6 -28 -13 -3 -9 4 -12 25 -11 17 1 64 -1 105 -5 72 -7 98 0 92 25 -5 20
15 65 32 75 20 10 26 39 8 39 -5 0 -7 -6 -3 -12 5 -9 2 -9 -9 1 -14 11 -17 11
-17 0 0 -8 -9 4 -19 26 -18 39 -18 41 0 58 18 17 25 37 14 37 -3 0 -17 -7 -30
-16 -31 -20 -55 -12 -80 26 -19 29 -20 29 -25 8 -3 -12 -20 -30 -37 -39 -27
-15 -33 -16 -43 -4 -7 8 -9 18 -6 24 4 5 -6 18 -22 29 -26 19 -29 19 -55 4
-23 -14 -26 -21 -21 -49 7 -38 4 -39 -38 -17 -17 9 -39 13 -50 11 -15 -4 -17
-3 -8 8 10 12 3 41 -15 63 -1 2 -19 -5 -38 -14 -35 -17 -36 -17 -71 9 -41 32
-39 32 -59 9z m-37 -57 c0 -16 -35 -21 -45 -6 -4 8 9 15 38 20 4 0 7 -6 7 -14z
m520 -21 c0 -8 -6 -11 -15 -8 -8 4 -15 9 -15 13 0 4 7 8 15 8 8 0 15 -6 15
-13z m-440 -14 c0 -5 -2 -10 -4 -10 -3 0 -8 5 -11 10 -3 6 -1 10 4 10 6 0 11
-4 11 -10z m450 -20 c0 -5 -5 -10 -11 -10 -5 0 -7 5 -4 10 3 6 8 10 11 10 2 0
4 -4 4 -10z m-20 -41 c-13 -23 -5 -69 11 -69 6 0 6 6 -1 19 -5 11 -7 27 -4 35
7 18 24 22 24 6 0 -5 7 -10 15 -10 12 0 14 -7 9 -27 -5 -22 -4 -25 6 -17 18
18 8 57 -20 71 -17 9 -20 13 -8 13 9 0 23 -6 30 -13 7 -7 18 -14 23 -15 6 -1
11 -12 12 -24 2 -22 1 -21 -6 2 l-9 25 -1 -28 c-2 -63 -40 -78 -88 -34 -20 18
-23 18 -23 4 0 -22 -16 -22 -24 -1 -4 10 -14 14 -26 11 -23 -6 -26 5 -6 22 11
9 20 9 35 2 12 -7 22 -7 26 -2 3 5 -4 12 -15 16 -28 9 -25 23 4 18 13 -3 27 0
30 6 13 20 17 11 6 -10z m50 -129 c0 -13 -30 -13 -50 0 -11 7 -7 10 18 10 17
0 32 -4 32 -10z"/>
<path d="M2725 1550 c-3 -5 -1 -10 4 -10 6 0 11 5 11 10 0 6 -2 10 -4 10 -3 0
-8 -4 -11 -10z"/>
<path d="M4190 1550 c0 -5 5 -10 11 -10 5 0 7 5 4 10 -3 6 -8 10 -11 10 -2 0
-4 -4 -4 -10z"/>
<path d="M4130 1520 c0 -6 -4 -8 -10 -5 -6 4 -7 -1 -3 -11 4 -12 3 -15 -5 -10
-8 5 -12 -1 -12 -16 l0 -22 17 24 c9 14 21 28 26 31 5 4 4 9 -2 13 -6 4 -11 2
-11 -4z"/>
<path d="M4337 1512 c-10 -10 -17 -25 -17 -33 1 -9 9 -4 23 13 12 14 33 28 47
31 22 4 21 4 -6 6 -19 0 -37 -6 -47 -17z"/>
<path d="M4560 1521 c0 -5 7 -11 14 -14 10 -4 13 -1 9 9 -6 15 -23 19 -23 5z"/>
<path d="M6520 1522 c0 -12 19 -26 26 -19 2 2 -2 10 -11 17 -9 8 -15 8 -15 2z"/>
<path d="M2101 1509 c-1 -12 -26 -23 -86 -39 -104 -28 -105 -39 -1 -15 89 21
99 27 93 51 -3 14 -5 15 -6 3z"/>
<path d="M4167 1495 c-20 -14 -23 -29 -4 -22 6 2 20 -2 30 -11 12 -10 17 -11
17 -3 0 7 4 9 10 6 6 -4 7 2 2 16 -10 26 -31 32 -55 14z"/>
<path d="M4367 1503 c-15 -14 -6 -25 11 -12 9 7 14 10 10 5 -11 -13 11 -48 24
-40 7 4 8 3 4 -4 -4 -7 -1 -12 6 -12 9 0 10 -3 2 -8 -10 -6 -25 -82 -16 -82 2
0 11 7 20 16 20 21 25 117 6 110 -8 -3 -11 2 -9 13 2 12 -4 17 -24 19 -15 1
-31 -1 -34 -5z"/>
<path d="M6516 1456 c-10 -33 0 -42 54 -52 19 -4 41 -13 48 -21 25 -24 26 -5
1 21 -18 19 -30 23 -55 19 -31 -5 -33 -4 -36 28 l-4 34 -8 -29z"/>
<path d="M4580 1461 c0 -8 -6 -11 -15 -7 -8 3 -15 0 -15 -7 0 -8 -4 -7 -11 3
-8 11 -8 9 -3 -10 5 -14 7 -38 6 -55 -1 -23 1 -26 8 -15 5 8 10 26 10 39 0 17
4 22 15 17 20 -7 32 21 16 37 -8 8 -11 8 -11 -2z"/>
<path d="M6664 1441 c21 -23 26 -26 26 -11 0 5 -10 15 -22 21 -23 12 -23 12
-4 -10z"/>
<path d="M7058 1429 c-16 -17 -15 -18 23 -17 21 0 39 2 39 3 0 1 -10 9 -22 17
-20 13 -25 12 -40 -3z"/>
<path d="M4070 1434 c0 -6 7 -19 16 -30 14 -18 14 -18 3 6 -14 31 -19 36 -19
24z"/>
<path d="M5067 1404 c-15 -8 -27 -17 -27 -20 0 -3 5 -2 11 2 7 4 10 1 7 -7 -3
-8 -11 -13 -17 -11 -6 1 -11 -3 -11 -9 0 -6 7 -8 16 -5 10 4 14 2 11 -6 -2 -7
-10 -12 -16 -10 -10 2 -15 -11 -12 -30 0 -5 -5 -8 -13 -8 -19 0 -67 -39 -65
-53 2 -17 -33 -97 -43 -97 -12 0 -10 -118 2 -125 6 -3 10 2 10 12 0 15 2 16
10 3 12 -18 13 -33 2 -26 -4 2 -13 1 -20 -3 -8 -5 -2 -24 20 -66 23 -45 26
-56 13 -45 -18 14 -18 13 1 -20 14 -25 32 -39 63 -49 77 -24 113 10 131 124
11 71 8 216 -4 246 -4 9 -6 22 -4 29 2 8 -6 16 -17 18 -11 2 -26 11 -32 20 -7
9 -13 12 -13 6 0 -5 -5 -2 -10 6 -7 10 -10 11 -10 2 0 -7 7 -15 15 -18 8 -4
13 -10 10 -14 -3 -4 5 -10 16 -13 14 -4 20 -11 16 -21 -3 -8 -1 -16 6 -19 17
-5 19 -148 2 -203 -7 -25 -14 -47 -14 -49 -6 -24 -16 -32 -36 -32 -20 0 -24 4
-20 21 2 11 4 29 4 40 1 15 6 17 29 12 25 -5 26 -5 5 6 -27 13 -31 30 -5 21
14 -5 13 -3 -3 10 -11 9 -15 17 -7 17 6 0 12 4 12 10 0 5 -7 7 -16 3 -13 -5
-15 3 -11 55 3 39 0 59 -6 55 -6 -3 -7 -1 -3 5 7 12 -23 72 -36 72 -4 0 -5 7
-2 15 3 8 9 13 13 12 13 -4 60 54 55 68 -3 7 4 18 15 25 20 10 29 44 13 53 -4
3 -19 -1 -35 -9z m17 -29 c-4 -8 -10 -15 -15 -15 -4 0 -6 7 -3 15 4 8 10 15
15 15 4 0 6 -7 3 -15z m-57 -237 c6 -13 7 -32 2 -43 -6 -17 -8 -15 -8 11 -1
16 -6 35 -13 42 -7 7 -8 12 -2 12 6 0 15 -10 21 -22z m-40 -40 c-3 -8 -6 -5
-6 6 -1 11 2 17 5 13 3 -3 4 -12 1 -19z m-17 -18 c0 -11 -4 -20 -9 -20 -13 0
-32 26 -24 33 13 14 33 6 33 -13z"/>
<path d="M6679 1405 c-1 -3 -2 -10 -3 -15 0 -6 -7 -15 -15 -19 -9 -6 -10 -11
-2 -15 5 -4 17 7 26 24 9 17 11 30 5 30 -5 0 -11 -2 -11 -5z"/>
<path d="M7045 1390 c3 -5 8 -10 11 -10 2 0 4 5 4 10 0 6 -5 10 -11 10 -5 0
-7 -4 -4 -10z"/>
<path d="M2361 1346 c-48 -17 -128 -97 -116 -116 4 -6 1 -10 -5 -10 -7 0 -9
-7 -6 -16 4 -10 2 -13 -6 -8 -7 5 -9 0 -6 -14 4 -12 3 -22 -2 -22 -4 0 -7 -11
-7 -25 0 -14 4 -25 9 -25 6 0 5 -7 -2 -15 -8 -10 -9 -15 -2 -15 6 0 9 -7 6
-15 -4 -8 -1 -15 6 -15 7 0 10 -7 6 -15 -3 -9 0 -15 9 -15 9 0 12 -6 8 -17 -5
-13 -2 -15 11 -10 14 5 17 3 12 -8 -3 -9 0 -15 10 -15 8 0 12 -4 9 -10 -3 -5
1 -10 9 -10 9 0 16 -4 16 -10 0 -5 7 -10 15 -10 8 0 15 -4 15 -10 0 -5 7 -7
15 -4 8 4 15 2 15 -4 0 -5 11 -8 25 -7 14 2 27 -1 30 -6 4 -5 23 -6 43 -3 20
3 45 7 55 7 9 1 17 5 17 9 0 4 8 4 17 1 12 -5 15 -2 10 10 -6 15 -3 16 13 7
12 -7 20 -7 20 -1 0 5 -9 12 -19 16 -32 10 -46 32 -31 50 10 12 10 18 0 30 -7
8 -10 25 -7 36 4 17 3 19 -6 10 -18 -18 -29 -13 -17 9 7 14 7 20 0 20 -5 0
-10 -4 -10 -9 0 -5 -19 -9 -43 -8 -33 0 -44 4 -44 16 0 18 45 61 64 61 6 0 16
14 22 32 l11 32 21 -38 c13 -24 18 -48 14 -63 -5 -22 -4 -23 15 -13 11 6 20
15 20 20 0 6 5 10 11 10 5 0 7 -4 4 -10 -3 -5 2 -10 12 -11 11 0 13 -3 5 -6
-6 -2 -9 -10 -5 -16 14 -22 11 -37 -5 -37 -15 0 -15 -2 -2 -10 12 -8 12 -10
-5 -10 -18 -1 -17 -2 5 -16 l25 -15 -30 5 c-28 4 -29 3 -10 -11 20 -15 19 -15
-3 -10 -19 4 -21 3 -11 -9 14 -17 -2 -19 -19 -2 -9 9 -12 9 -12 0 0 -7 15 -19
33 -27 34 -14 52 -11 27 5 -12 8 -10 10 8 10 26 0 28 -12 5 -36 -12 -12 -13
-16 -3 -12 25 8 69 72 75 108 6 33 5 32 -16 -12 -21 -48 -32 -57 -44 -38 -3 6
1 10 10 10 11 0 15 5 11 15 -3 8 -1 15 4 15 8 0 15 26 23 85 1 11 6 26 10 33
5 7 3 12 -3 12 -7 0 -10 7 -6 15 3 9 -1 15 -11 15 -13 0 -13 3 -3 15 10 12 10
15 -3 15 -10 0 -14 6 -11 15 4 8 1 15 -6 15 -7 0 -10 7 -6 16 5 13 2 15 -15
11 -14 -4 -19 -2 -15 8 2 7 -4 21 -15 31 -17 16 -22 16 -30 4 -7 -11 -8 -8 -4
11 6 25 4 26 -47 32 -76 10 -128 7 -167 -7z m90 -41 c5 4 9 -2 9 -11 0 -16 1
-16 16 2 15 18 15 18 11 -4 -5 -19 -3 -21 9 -11 10 8 14 8 14 1 0 -6 7 -9 15
-6 11 5 14 2 8 -12 -6 -18 -5 -18 17 1 l23 20 -10 -20 c-6 -11 -8 -27 -6 -35
3 -10 2 -11 -4 -4 -4 6 -18 17 -31 23 -22 12 -23 11 -12 -8 8 -15 8 -21 0 -21
-7 0 -9 -8 -5 -19 4 -14 0 -21 -13 -25 -11 -4 -35 -22 -55 -41 -19 -18 -38
-31 -41 -28 -3 4 -6 -1 -6 -11 0 -9 4 -15 9 -12 11 7 52 -55 44 -68 -3 -5 -12
-1 -19 8 -6 10 -25 21 -41 25 -15 5 -27 13 -26 19 2 6 -3 9 -11 6 -18 -7 -40
49 -32 81 4 15 0 38 -10 57 -15 29 -15 30 1 25 10 -4 14 -3 10 4 -8 11 50 65
77 73 12 3 18 -2 19 -12 0 -12 4 -9 12 8 10 19 13 21 15 7 2 -10 8 -15 13 -12z
m153 -20 c-4 -8 -11 -15 -16 -15 -6 0 -5 6 2 15 7 8 14 15 16 15 2 0 1 -7 -2
-15z m-308 -94 c-4 -6 -13 -11 -19 -10 -9 0 -9 2 0 5 7 3 9 13 6 22 -5 13 -3
14 7 5 7 -6 9 -16 6 -22z m197 -143 l-6 -33 26 18 c15 10 27 13 27 8 0 -5 -7
-12 -16 -15 -8 -3 -12 -11 -8 -17 4 -8 0 -8 -15 0 -21 12 -26 27 -15 55 10 27
14 18 7 -16z m-113 -30 c0 -5 -4 -8 -10 -8 -5 0 -10 5 -10 10 0 6 -7 10 -16
10 -8 0 -12 4 -9 10 6 10 45 -9 45 -22z m35 -18 c3 -5 15 -10 26 -10 10 0 19
-4 19 -10 0 -6 -10 -6 -27 1 -16 6 -29 10 -30 10 -14 -4 -23 1 -18 9 3 6 10
10 15 10 5 0 12 -4 15 -10z m65 0 c0 -5 -2 -10 -4 -10 -3 0 -8 5 -11 10 -3 6
-1 10 4 10 6 0 11 -4 11 -10z"/>
<path d="M4337 1305 c18 -25 33 -32 33 -17 0 10 -33 42 -44 42 -4 0 1 -11 11
-25z"/>
<path d="M7367 1316 c-3 -8 3 -22 14 -32 23 -21 37 -13 15 9 -8 8 -13 17 -10
20 3 3 1 8 -4 11 -6 3 -12 0 -15 -8z"/>
<path d="M6849 1289 c-10 -9 -16 -19 -12 -23 3 -3 15 2 25 11 18 16 19 16 14
-10 -3 -16 -1 -25 5 -22 5 4 9 16 9 27 0 20 1 20 19 4 26 -24 48 -11 25 15
-20 22 -58 21 -85 -2z"/>
<path d="M4520 1292 c0 -4 9 -13 20 -20 23 -14 26 -7 6 14 -16 15 -26 18 -26
6z"/>
<path d="M6051 1190 c-29 -55 -50 -100 -47 -100 7 0 109 191 104 195 -2 2 -28
-41 -57 -95z"/>
<path d="M4847 1259 c-21 -11 -35 -24 -32 -29 3 -5 13 -3 23 5 9 8 26 21 37
29 27 21 17 19 -28 -5z"/>
<path d="M1702 1204 c-13 -26 -21 -48 -18 -51 2 -2 7 4 10 15 4 11 15 30 26
42 21 24 26 40 12 40 -4 0 -18 -21 -30 -46z"/>
<path d="M6850 1220 c0 -10 32 -30 49 -30 6 0 11 5 11 11 0 6 -7 9 -15 6 -8
-4 -17 -2 -20 3 -3 4 1 11 7 13 7 3 3 6 -9 6 -13 1 -23 -3 -23 -9z"/>
<path d="M7312 1205 c6 -14 13 -24 14 -22 6 6 -9 47 -17 47 -5 0 -3 -11 3 -25z"/>
<path d="M3523 1195 c-3 -9 -3 -19 1 -22 3 -4 6 1 6 11 0 9 5 14 10 11 21 -13
7 -31 -41 -55 -54 -26 -78 -54 -57 -66 7 -4 10 -4 6 1 -10 10 11 29 61 54 54
28 77 81 35 81 -8 0 -17 -7 -21 -15z"/>
<path d="M3385 1129 c-12 -18 3 -22 20 -5 14 14 14 16 1 16 -8 0 -18 -5 -21
-11z"/>
<path d="M3513 1119 c-25 -16 -34 -31 -43 -72 -16 -75 2 -124 59 -156 l42 -23
40 27 c30 20 40 32 36 46 -3 10 -1 17 3 14 5 -3 12 11 16 30 9 50 -19 121 -56
140 -37 19 -58 18 -97 -6z m57 -10 c0 -6 7 -9 15 -5 8 3 15 1 15 -5 0 -6 5 -7
10 -4 15 9 12 -21 -3 -34 -8 -6 -17 -8 -20 -4 -4 3 -7 -1 -7 -10 0 -8 6 -22
14 -30 12 -12 9 -17 -19 -40 -31 -25 -75 -28 -75 -5 0 5 -4 7 -8 4 -5 -3 -8
15 -8 40 1 24 4 44 9 44 4 0 7 8 7 17 0 9 3 13 7 10 3 -4 13 -1 22 5 14 11 14
10 0 -7 -22 -27 -33 -65 -19 -65 6 0 8 5 4 12 -4 7 -3 8 4 4 17 -10 15 -26 -3
-26 -17 0 -19 -9 -5 -30 9 -13 12 -13 24 3 7 9 21 17 31 17 17 0 17 1 -1 21
-18 20 -18 22 -1 34 17 12 25 41 8 31 -5 -3 -11 3 -14 14 -3 11 -1 20 4 20 5
0 9 -5 9 -11z m75 -49 c-3 -5 -3 -16 1 -22 21 -33 8 -67 -24 -68 -10 0 -9 4 2
16 18 18 19 24 7 43 -5 7 -14 10 -21 6 -8 -5 -7 0 2 14 7 12 19 21 26 21 7 0
10 -4 7 -10z"/>
<path d="M5063 1119 c4 -13 7 -30 7 -36 0 -7 3 -13 8 -13 13 0 8 47 -7 61 -12
11 -13 9 -8 -12z"/>
<path d="M3380 1070 c0 -26 14 -36 45 -30 l29 5 -27 18 c-19 12 -27 14 -27 5
0 -9 -3 -8 -10 2 -9 13 -10 13 -10 0z"/>
<path d="M3682 1067 c-7 -8 -9 -16 -6 -19 9 -10 45 4 41 15 -5 17 -23 19 -35
4z"/>
<path d="M5979 1063 c-13 -16 -12 -17 4 -4 9 7 17 15 17 17 0 8 -8 3 -21 -13z"/>
<path d="M4390 1060 c0 -5 6 -13 13 -17 16 -9 52 -63 43 -63 -4 0 -1 -12 7
-27 15 -33 15 -106 -2 -148 -27 -71 -44 -104 -51 -100 -4 2 -13 -7 -20 -20 -7
-14 -20 -25 -29 -26 -10 0 -8 -4 7 -9 12 -5 30 -6 40 -3 15 6 15 5 3 -10 -18
-23 -77 -32 -106 -17 -12 7 -35 33 -50 59 -15 25 -23 37 -20 26 4 -11 8 -26 8
-34 1 -18 44 -60 74 -72 33 -12 61 -4 96 30 32 29 58 69 36 56 -9 -6 -10 -3
-4 11 4 10 8 27 9 37 0 9 4 17 9 17 5 0 7 6 4 14 -3 7 0 19 6 25 13 13 18 161
6 161 -5 0 -6 6 -3 14 3 8 1 17 -5 21 -8 4 -8 12 0 27 6 11 7 18 2 15 -5 -3
-22 5 -38 19 -31 27 -35 28 -35 14z m32 -402 c-7 -7 -12 -8 -12 -2 0 14 12 26
19 19 2 -3 -1 -11 -7 -17z"/>
<path d="M4305 1044 c-14 -14 -29 -45 -56 -111 -5 -15 -5 -23 1 -23 6 0 10 9
10 21 0 11 4 18 9 15 5 -4 19 10 31 29 12 19 34 42 48 50 19 10 22 14 10 15
-9 0 -20 -4 -23 -10 -3 -5 -11 -10 -17 -10 -6 0 -3 9 7 20 21 24 4 27 -20 4z
m-14 -65 c-12 -19 -21 -30 -21 -26 0 14 31 69 36 64 3 -3 -4 -20 -15 -38z"/>
<path d="M3410 1016 c0 -8 11 -41 25 -72 19 -42 22 -60 14 -70 -15 -18 -2 -55
17 -47 7 3 14 10 14 17 1 31 17 38 49 22 17 -9 31 -13 31 -8 0 5 -17 16 -39
24 -34 13 -41 23 -62 78 -23 60 -49 90 -49 56z m56 -154 c-18 -16 -18 -16 -6
6 6 13 14 21 18 18 3 -4 -2 -14 -12 -24z"/>
<path d="M4325 960 c3 -5 8 -10 11 -10 2 0 4 5 4 10 0 6 -5 10 -11 10 -5 0 -7
-4 -4 -10z"/>
<path d="M5831 951 c-8 -5 -9 -11 -3 -15 5 -3 12 1 16 9 6 17 6 18 -13 6z"/>
<path d="M4310 905 c0 -9 6 -12 15 -9 8 4 15 10 15 15 0 5 -7 9 -15 9 -8 0
-15 -7 -15 -15z"/>
<path d="M5761 865 c-33 -49 -35 -80 -7 -112 20 -23 23 -24 29 -9 4 10 3 15
-3 11 -6 -3 -15 6 -21 22 -19 51 9 103 60 109 42 5 65 -8 81 -46 13 -32 24
-37 36 -18 4 7 3 8 -4 4 -8 -5 -12 1 -12 16 0 41 -15 51 -77 56 -57 3 -58 3
-82 -33z"/>
<path d="M3630 884 c0 -17 28 -49 36 -41 4 4 -2 17 -14 30 -12 12 -22 17 -22
11z"/>
<path d="M5716 881 c-3 -5 1 -11 9 -15 8 -3 15 -1 15 4 0 13 -18 22 -24 11z"/>
<path d="M3610 871 c0 -6 4 -13 10 -16 6 -3 7 1 4 9 -7 18 -14 21 -14 7z"/>
<path d="M4230 860 c0 -5 5 -10 11 -10 5 0 7 5 4 10 -3 6 -8 10 -11 10 -2 0
-4 -4 -4 -10z"/>
<path d="M5804 845 c-19 -14 -19 -14 2 -15 12 0 21 6 21 15 0 18 1 18 -23 0z"/>
<path d="M5847 846 c-3 -8 1 -17 10 -20 22 -9 24 -4 8 17 -10 14 -14 15 -18 3z"/>
<path d="M4261 829 c-3 -65 35 -139 71 -139 8 0 4 8 -8 18 -28 22 -46 58 -55
107 -4 28 -7 32 -8 14z"/>
<path d="M4305 833 c-3 -8 -5 -26 -5 -39 0 -23 3 -24 43 -18 83 11 87 13 87
40 0 26 -1 26 -51 20 -28 -4 -48 -3 -45 2 3 5 -1 9 -9 9 -8 0 -17 -7 -20 -14z
m50 -33 c-3 -5 -10 -10 -16 -10 -5 0 -9 5 -9 10 0 6 7 10 16 10 8 0 12 -4 9
-10z"/>
<path d="M4233 790 c0 -22 3 -40 7 -40 4 0 8 -6 7 -12 -1 -33 4 -49 13 -43 5
3 7 0 4 -8 -6 -16 23 -50 36 -42 5 3 10 -1 13 -7 3 -9 7 -7 12 5 9 21 -13 50
-32 43 -8 -3 -13 2 -13 12 0 10 -4 22 -10 28 -10 10 -18 44 -19 82 -2 40 -18
23 -18 -18z"/>
<path d="M3655 801 c-3 -5 0 -13 6 -17 7 -4 9 -3 5 4 -3 5 0 13 6 15 9 4 10 6
1 6 -6 1 -14 -3 -18 -8z"/>
<path d="M4212 790 c0 -14 2 -19 5 -12 2 6 2 18 0 25 -3 6 -5 1 -5 -13z"/>
<path d="M5770 801 c0 -11 26 -22 34 -14 12 12 5 23 -14 23 -11 0 -20 -4 -20
-9z"/>
<path d="M5820 805 c0 -10 29 -24 34 -17 3 6 -3 12 -14 15 -11 3 -20 4 -20 2z"/>
<path d="M3490 789 c0 -5 5 -7 10 -4 6 3 10 8 10 11 0 2 -4 4 -10 4 -5 0 -10
-5 -10 -11z"/>
<path d="M3490 763 c-35 -13 -72 -47 -90 -83 -23 -46 -26 -66 -4 -30 14 23 14
23 9 3 -7 -26 10 -31 19 -6 4 9 1 20 -6 24 -16 10 32 62 73 79 71 30 167 -19
209 -105 24 -49 29 -54 26 -28 -2 32 -76 116 -120 137 -34 16 -87 20 -116 9z"/>
<path d="M3530 742 c0 -7 -4 -10 -10 -7 -5 3 -10 1 -10 -5 0 -6 -4 -9 -9 -5
-16 9 -62 -17 -57 -32 3 -8 2 -12 -2 -9 -5 3 -9 -11 -9 -31 l-1 -35 14 29 c35
68 110 84 177 38 24 -16 39 -20 43 -13 4 7 3 8 -4 4 -7 -4 -12 0 -12 10 0 10
-3 14 -6 11 -4 -4 -15 3 -25 15 -11 11 -19 17 -19 12 0 -5 -5 -2 -10 6 -8 12
-10 12 -10 1 0 -11 -3 -11 -15 -1 -8 7 -15 9 -15 4 0 -5 -5 -2 -10 6 -7 11
-10 11 -10 2z"/>
<path d="M3770 706 c0 -2 8 -10 18 -17 15 -13 16 -12 3 4 -13 16 -21 21 -21
13z"/>
<path d="M3290 675 c-20 -21 -21 -28 -12 -47 11 -23 11 -23 6 2 -7 35 28 69
51 50 13 -11 14 -10 9 4 -9 23 -27 20 -54 -9z"/>
<path d="M3492 658 c-37 -41 -45 -77 -27 -125 9 -24 20 -41 23 -39 4 2 41 7
82 11 41 4 78 9 82 11 5 3 8 22 8 42 0 43 -29 95 -62 113 -22 12 -22 12 -5
-14 24 -37 21 -45 -4 -13 -24 30 -45 33 -71 9 -20 -18 -25 -4 -6 15 7 7 10 12
7 12 -3 0 -15 -10 -27 -22z"/>
<path d="M1546 571 c-9 -38 -16 -85 -16 -103 1 -29 2 -31 12 -14 11 19 32 176
24 183 -2 2 -11 -27 -20 -66z"/>
<path d="M3422 585 c0 -16 2 -22 5 -12 2 9 2 23 0 30 -3 6 -5 -1 -5 -18z"/>
<path d="M3780 599 c0 -5 5 -7 10 -4 6 3 10 8 10 11 0 2 -4 4 -10 4 -5 0 -10
-5 -10 -11z"/>
<path d="M3290 591 c0 -5 9 -16 20 -26 11 -10 17 -22 13 -28 -3 -6 -1 -7 6 -3
9 6 9 11 1 21 -7 8 -9 18 -6 23 3 6 -3 12 -14 15 -11 3 -20 2 -20 -2z"/>
<path d="M3781 553 c11 -18 11 -25 1 -35 -17 -17 -15 -33 3 -18 20 16 19 44
-2 61 -15 13 -15 12 -2 -8z"/>
<path d="M5721 544 c-25 -31 -27 -61 -6 -91 18 -26 64 -39 79 -22 6 7 7 10 1
6 -6 -3 -25 1 -42 10 -27 13 -31 20 -28 45 5 36 24 61 41 54 7 -3 16 0 20 6 4
7 13 0 21 -16 13 -24 13 -30 -1 -45 -15 -16 -14 -19 9 -29 22 -10 25 -9 25 9
0 11 -5 29 -11 41 -12 23 -2 39 11 18 6 -9 10 -10 10 -3 0 19 -42 43 -76 43
-23 0 -39 -8 -53 -26z"/>
<path d="M3375 520 c3 -5 8 -10 11 -10 2 0 4 5 4 10 0 6 -5 10 -11 10 -5 0 -7
-4 -4 -10z"/>
<path d="M3430 518 c0 -9 9 -26 20 -39 l21 -24 -17 35 c-21 43 -24 47 -24 28z"/>
<path d="M3310 507 c0 -11 39 -43 44 -35 1 2 -8 13 -21 25 -13 12 -23 17 -23
10z"/>
<path d="M3410 505 c0 -5 5 -17 10 -25 5 -8 10 -10 10 -5 0 6 -5 17 -10 25 -5
8 -10 11 -10 5z"/>
<path d="M7466 459 c-11 -29 -19 -65 -18 -81 1 -39 27 -78 52 -78 11 0 29 -9
41 -21 19 -19 20 -19 16 -2 -3 10 -11 43 -18 73 -7 30 -17 58 -22 61 -5 4 -15
28 -21 53 l-12 46 -18 -51z"/>
<path d="M3390 494 c0 -6 11 -27 24 -47 l24 -36 -27 -23 -27 -23 29 20 30 21
45 -23 c25 -13 59 -23 75 -23 34 0 114 37 121 56 3 7 -11 2 -31 -11 -19 -14
-49 -27 -67 -30 -36 -7 -112 16 -109 33 2 6 -3 9 -11 6 -7 -3 -19 2 -26 11
-12 14 -11 18 1 27 11 8 11 9 -3 4 -12 -4 -22 3 -32 22 -9 15 -15 22 -16 16z"/>
<path d="M3500 481 c0 -5 14 -14 31 -20 24 -8 39 -7 65 4 19 8 34 16 34 19 0
4 -29 6 -65 6 -36 0 -65 -4 -65 -9z"/>
<path d="M3701 463 c-10 -26 -10 -27 4 -9 8 11 15 23 15 28 0 15 -7 8 -19 -19z"/>
<path d="M3766 449 c-11 -11 -15 -19 -9 -19 12 0 38 28 32 34 -2 2 -13 -5 -23
-15z"/>
<path d="M3497 429 c16 -16 88 -23 109 -11 15 9 12 10 -18 5 -20 -3 -52 0 -70
6 -23 8 -29 8 -21 0z"/>
<path d="M3358 417 c14 -6 26 -7 32 -1 5 5 -4 9 -23 10 -30 1 -30 1 -9 -9z"/>
<path d="M3745 390 c3 -5 8 -10 11 -10 2 0 4 5 4 10 0 6 -5 10 -11 10 -5 0 -7
-4 -4 -10z"/>
<path d="M1496 324 c-3 -9 -6 -32 -6 -52 0 -53 -17 -107 -44 -139 -26 -31 -42
-133 -22 -133 7 0 24 24 39 53 14 28 34 64 43 79 16 23 16 32 4 81 -7 31 -10
72 -7 91 6 38 3 46 -7 20z"/>
<path d="M3666 322 c-10 -17 34 -25 64 -12 23 9 21 10 -12 6 -22 -3 -38 0 -41
7 -2 8 -5 8 -11 -1z"/>
<path d="M3480 310 c0 -5 -15 -11 -32 -13 -18 -2 -9 -3 21 0 31 2 59 -1 67 -8
11 -9 18 -8 29 1 8 6 20 8 27 4 10 -5 10 -4 1 6 -10 11 -15 11 -28 0 -11 -9
-18 -10 -29 -1 -18 15 -56 22 -56 11z"/>
<path d="M3621 298 c-14 -23 -14 -23 8 -4 22 20 25 26 13 26 -4 0 -13 -10 -21
-22z"/>
<path d="M7581 68 c-1 -62 1 -68 20 -68 17 0 19 4 13 23 -4 12 -13 42 -20 67
l-13 45 0 -67z"/>
</g>
</svg>
